<?xml version="1.0" encoding="UTF-8" standalone="no"?>
<!-- Created with Inkscape (http://www.inkscape.org/) -->

<svg
   xmlns:dc="http://purl.org/dc/elements/1.1/"
   xmlns:cc="http://creativecommons.org/ns#"
   xmlns:rdf="http://www.w3.org/1999/02/22-rdf-syntax-ns#"
   xmlns:svg="http://www.w3.org/2000/svg"
   xmlns="http://www.w3.org/2000/svg"
   xmlns:xlink="http://www.w3.org/1999/xlink"
   xmlns:sodipodi="http://sodipodi.sourceforge.net/DTD/sodipodi-0.dtd"
   xmlns:inkscape="http://www.inkscape.org/namespaces/inkscape"
   width="48px"
   height="48px"
   id="svg2816"
   version="1.1"
   inkscape:version="0.47 r22583"
   sodipodi:docname="hdd.svg">
  <title
     id="title2889">Hard Disk</title>
  <defs
     id="defs2818">
    <linearGradient
       inkscape:collect="always"
       id="linearGradient3810">
      <stop
         style="stop-color:#fdfdfd;stop-opacity:1"
         offset="0"
         id="stop3812" />
      <stop
         style="stop-color:#c9c9c9;stop-opacity:1"
         offset="1"
         id="stop3814" />
    </linearGradient>
    <linearGradient
       inkscape:collect="always"
       id="linearGradient3734">
      <stop
         style="stop-color:#676767;stop-opacity:1"
         offset="0"
         id="stop3736" />
      <stop
         style="stop-color:#f9f9f9;stop-opacity:1"
         offset="1"
         id="stop3738" />
    </linearGradient>
    <linearGradient
       inkscape:collect="always"
       id="linearGradient3716">
      <stop
         style="stop-color:#b5b5b5;stop-opacity:1"
         offset="0"
         id="stop3718" />
      <stop
         style="stop-color:#878787;stop-opacity:1"
         offset="1"
         id="stop3720" />
    </linearGradient>
    <linearGradient
       inkscape:collect="always"
       id="linearGradient3708">
      <stop
         style="stop-color:#9f9f9f;stop-opacity:1"
         offset="0"
         id="stop3710" />
      <stop
         style="stop-color:#c4c4c4;stop-opacity:1"
         offset="1"
         id="stop3712" />
    </linearGradient>
    <linearGradient
       inkscape:collect="always"
       id="linearGradient3700">
      <stop
         style="stop-color:#c0c0c0;stop-opacity:1"
         offset="0"
         id="stop3702" />
      <stop
         style="stop-color:#e5e5e5;stop-opacity:1"
         offset="1"
         id="stop3704" />
    </linearGradient>
    <inkscape:perspective
       sodipodi:type="inkscape:persp3d"
       inkscape:vp_x="-21.312546 : 13.629942 : 0"
       inkscape:vp_y="6.1230319e-14 : 1000 : 0"
       inkscape:vp_z="23.985995 : 8.0418975 : 0"
       inkscape:persp3d-origin="24 : 16 : 1"
       id="perspective2824" />
    <linearGradient
       inkscape:collect="always"
       xlink:href="#linearGradient3700"
       id="linearGradient3706"
       x1="17.127058"
       y1="17.200897"
       x2="36.132561"
       y2="24.724054"
       gradientUnits="userSpaceOnUse" />
    <linearGradient
       inkscape:collect="always"
       xlink:href="#linearGradient3708"
       id="linearGradient3714"
       x1="11.039242"
       y1="21.619684"
       x2="26.885736"
       y2="28.647898"
       gradientUnits="userSpaceOnUse" />
    <linearGradient
       inkscape:collect="always"
       xlink:href="#linearGradient3716"
       id="linearGradient3722"
       x1="28.519054"
       y1="27.676254"
       x2="39.300205"
       y2="27.676254"
       gradientUnits="userSpaceOnUse" />
    <linearGradient
       inkscape:collect="always"
       xlink:href="#linearGradient3734"
       id="linearGradient3756"
       gradientUnits="userSpaceOnUse"
       x1="23.607143"
       y1="30.035715"
       x2="23.607143"
       y2="31.321428" />
    <linearGradient
       inkscape:collect="always"
       xlink:href="#linearGradient3734"
       id="linearGradient3758"
       gradientUnits="userSpaceOnUse"
       x1="23.607143"
       y1="31.536835"
       x2="23.607143"
       y2="29.820309" />
    <linearGradient
       inkscape:collect="always"
       xlink:href="#linearGradient3734"
       id="linearGradient3760"
       gradientUnits="userSpaceOnUse"
       x1="23.607143"
       y1="30.035715"
       x2="23.607143"
       y2="31.321428" />
    <linearGradient
       inkscape:collect="always"
       xlink:href="#linearGradient3734"
       id="linearGradient3762"
       gradientUnits="userSpaceOnUse"
       x1="23.607143"
       y1="31.536835"
       x2="23.607143"
       y2="29.820309" />
    <linearGradient
       inkscape:collect="always"
       xlink:href="#linearGradient3734"
       id="linearGradient3770"
       gradientUnits="userSpaceOnUse"
       x1="23.607143"
       y1="30.035715"
       x2="23.607143"
       y2="31.321428" />
    <linearGradient
       inkscape:collect="always"
       xlink:href="#linearGradient3734"
       id="linearGradient3772"
       gradientUnits="userSpaceOnUse"
       x1="23.607143"
       y1="31.536835"
       x2="23.607143"
       y2="29.820309" />
    <linearGradient
       inkscape:collect="always"
       xlink:href="#linearGradient3734"
       id="linearGradient3780"
       gradientUnits="userSpaceOnUse"
       x1="23.607143"
       y1="30.035715"
       x2="23.607143"
       y2="31.321428" />
    <linearGradient
       inkscape:collect="always"
       xlink:href="#linearGradient3734"
       id="linearGradient3782"
       gradientUnits="userSpaceOnUse"
       x1="23.607143"
       y1="31.536835"
       x2="23.607143"
       y2="29.820309" />
    <linearGradient
       inkscape:collect="always"
       xlink:href="#linearGradient3734"
       id="linearGradient3790"
       gradientUnits="userSpaceOnUse"
       x1="23.607143"
       y1="30.035715"
       x2="23.607143"
       y2="31.321428" />
    <linearGradient
       inkscape:collect="always"
       xlink:href="#linearGradient3734"
       id="linearGradient3792"
       gradientUnits="userSpaceOnUse"
       x1="23.607143"
       y1="31.536835"
       x2="23.607143"
       y2="29.820309" />
    <linearGradient
       inkscape:collect="always"
       xlink:href="#linearGradient3734"
       id="linearGradient3800"
       gradientUnits="userSpaceOnUse"
       x1="23.607143"
       y1="30.035715"
       x2="23.607143"
       y2="31.321428" />
    <linearGradient
       inkscape:collect="always"
       xlink:href="#linearGradient3734"
       id="linearGradient3802"
       gradientUnits="userSpaceOnUse"
       x1="23.607143"
       y1="31.536835"
       x2="23.607143"
       y2="29.820309" />
    <radialGradient
       inkscape:collect="always"
       xlink:href="#linearGradient3810"
       id="radialGradient3837"
       gradientUnits="userSpaceOnUse"
       cx="46.675781"
       cy="30.0625"
       fx="46.675781"
       fy="30.0625"
       r="0.2890625" />
    <radialGradient
       inkscape:collect="always"
       xlink:href="#linearGradient3810"
       id="radialGradient3839"
       gradientUnits="userSpaceOnUse"
       cx="46.675781"
       cy="30.0625"
       fx="46.675781"
       fy="30.0625"
       r="0.2890625" />
    <radialGradient
       inkscape:collect="always"
       xlink:href="#linearGradient3810"
       id="radialGradient3841"
       gradientUnits="userSpaceOnUse"
       cx="46.675781"
       cy="30.0625"
       fx="46.675781"
       fy="30.0625"
       r="0.2890625" />
    <radialGradient
       inkscape:collect="always"
       xlink:href="#linearGradient3810"
       id="radialGradient3843"
       gradientUnits="userSpaceOnUse"
       cx="46.675781"
       cy="30.0625"
       fx="46.675781"
       fy="30.0625"
       r="0.2890625" />
    <filter
       inkscape:collect="always"
       id="filter3904">
      <feGaussianBlur
         inkscape:collect="always"
         stdDeviation="0.60551016"
         id="feGaussianBlur3906" />
    </filter>
  </defs>
  <sodipodi:namedview
     id="base"
     pagecolor="#ffffff"
     bordercolor="#666666"
     borderopacity="1.0"
     inkscape:pageopacity="0.0"
     inkscape:pageshadow="2"
     inkscape:zoom="11.313709"
     inkscape:cx="7.7405303"
     inkscape:cy="23.7391"
     inkscape:current-layer="layer2"
     showgrid="true"
     inkscape:grid-bbox="true"
     inkscape:document-units="px"
     inkscape:window-width="1680"
     inkscape:window-height="1000"
     inkscape:window-x="-8"
     inkscape:window-y="-8"
     inkscape:window-maximized="1" />
  <metadata
     id="metadata2821">
    <rdf:RDF>
      <cc:Work
         rdf:about="">
        <dc:format>image/svg+xml</dc:format>
        <dc:type
           rdf:resource="http://purl.org/dc/dcmitype/StillImage" />
        <dc:title>Hard Disk</dc:title>
        <dc:creator>
          <cc:Agent>
            <dc:title>Florian Haag</dc:title>
          </cc:Agent>
        </dc:creator>
        <dc:rights>
          <cc:Agent>
            <dc:title>Florian Haag</dc:title>
          </cc:Agent>
        </dc:rights>
        <cc:license
           rdf:resource="http://creativecommons.org/licenses/MIT/" />
        <dc:identifier>http://toolbaricons.sourceforge.net/icons/Modern3D/computers/hdd</dc:identifier>
        <dc:subject>
          <rdf:Bag />
        </dc:subject>
        <dc:date>2010-02-03</dc:date>
        <dc:publisher>
          <cc:Agent>
            <dc:title>Florian Haag</dc:title>
          </cc:Agent>
        </dc:publisher>
      </cc:Work>
    </rdf:RDF>
  </metadata>
  <g
     inkscape:groupmode="layer"
     id="layer2"
     inkscape:label="shadows">
    <path
       style="fill:#212121;stroke:none;stroke-width:1px;stroke-linecap:butt;stroke-linejoin:miter;stroke-opacity:1;fill-opacity:1;filter:url(#filter3904)"
       d="m 3.125,21 -1.4375,2.125 -0.125,1.25 21.8125,14.9375 22.125,-8 L 45.5625,26.25 3.125,21 z"
       id="path3866"
       sodipodi:nodetypes="ccccccc" />
  </g>
  <g
     id="layer1"
     inkscape:label="object"
     inkscape:groupmode="layer">
    <g
       id="g2900"
       style="fill:#f7feff;fill-opacity:1;stroke:none"
       transform="matrix(1.4431631,0,0,1.4431631,-15.111811,-8.314634)">
      <path
         d="M 11.212472,18.222035 26.712506,28.13472 41.997654,23.009996 26.497621,14.483156 11.212472,18.222035 z"
         style="fill:url(#linearGradient3706);fill-opacity:1;fill-rule:evenodd;stroke:#676767;stroke-width:0.34646118;stroke-linejoin:bevel;stroke-miterlimit:4;stroke-opacity:1;stroke-dasharray:none"
         id="path2922"
         sodipodi:nodetypes="ccccc" />
      <path
         d="m 26.712506,28.13472 0,4.207792 15.285148,-5.332652 0,-3.999864 -15.285148,5.124724 z"
         style="fill:url(#linearGradient3722);fill-opacity:1;fill-rule:evenodd;stroke:#676767;stroke-width:0.34646118;stroke-linejoin:bevel;stroke-miterlimit:4;stroke-opacity:1;stroke-dasharray:none"
         id="path2924"
         sodipodi:nodetypes="ccccc" />
      <path
         d="m 11.212472,18.222035 15.500034,9.912685 0,4.207792 -15.499767,-10.467206 -2.67e-4,-3.653271 z"
         style="fill:url(#linearGradient3714);fill-opacity:1;fill-rule:evenodd;stroke:#676767;stroke-width:0.34646118;stroke-linejoin:bevel;stroke-miterlimit:4;stroke-opacity:1;stroke-dasharray:none"
         id="path2926"
         sodipodi:nodetypes="ccccc" />
      <g
         id="g3746"
         transform="translate(0.51969178,0)">
        <path
           transform="matrix(0.69292237,0,0,0.69292237,10.471312,5.7613959)"
           d="m 24.428572,30.678572 c 0,0.216969 -0.367766,0.392857 -0.821429,0.392857 -0.453662,0 -0.821428,-0.175888 -0.821428,-0.392857 0,-0.216969 0.367766,-0.392857 0.821428,-0.392857 0.453663,0 0.821429,0.175888 0.821429,0.392857 z"
           sodipodi:ry="0.39285713"
           sodipodi:rx="0.8214286"
           sodipodi:cy="30.678572"
           sodipodi:cx="23.607143"
           id="path3724"
           style="fill:none;stroke:url(#linearGradient3760);stroke-width:0.5;stroke-linecap:butt;stroke-linejoin:bevel;stroke-miterlimit:4;stroke-opacity:1;stroke-dasharray:none;stroke-dashoffset:0"
           sodipodi:type="arc" />
        <path
           sodipodi:type="arc"
           style="fill:none;stroke:url(#linearGradient3762);stroke-width:0.68701333;stroke-linecap:butt;stroke-linejoin:bevel;stroke-miterlimit:4;stroke-opacity:1;stroke-dasharray:none;stroke-dashoffset:0"
           id="path3742"
           sodipodi:cx="23.607143"
           sodipodi:cy="30.678572"
           sodipodi:rx="0.8214286"
           sodipodi:ry="0.39285713"
           d="m 24.428572,30.678572 c 0,0.216969 -0.367766,0.392857 -0.821429,0.392857 -0.453662,0 -0.821428,-0.175888 -0.821428,-0.392857 0,-0.216969 0.367766,-0.392857 0.821428,-0.392857 0.453663,0 0.821429,0.175888 0.821429,0.392857 z"
           transform="matrix(0.4372858,0,0,0.37221467,16.506161,15.60025)" />
      </g>
      <g
         id="g3750"
         transform="translate(12.645834,-4.0925728)">
        <path
           sodipodi:type="arc"
           style="fill:none;stroke:url(#linearGradient3756);stroke-width:0.5;stroke-linecap:butt;stroke-linejoin:bevel;stroke-miterlimit:4;stroke-opacity:1;stroke-dasharray:none;stroke-dashoffset:0"
           id="path3752"
           sodipodi:cx="23.607143"
           sodipodi:cy="30.678572"
           sodipodi:rx="0.8214286"
           sodipodi:ry="0.39285713"
           d="m 24.428572,30.678572 c 0,0.216969 -0.367766,0.392857 -0.821429,0.392857 -0.453662,0 -0.821428,-0.175888 -0.821428,-0.392857 0,-0.216969 0.367766,-0.392857 0.821428,-0.392857 0.453663,0 0.821429,0.175888 0.821429,0.392857 z"
           transform="matrix(0.69292237,0,0,0.69292237,10.471312,5.7613959)" />
        <path
           transform="matrix(0.4372858,0,0,0.37221467,16.506161,15.60025)"
           d="m 24.428572,30.678572 c 0,0.216969 -0.367766,0.392857 -0.821429,0.392857 -0.453662,0 -0.821428,-0.175888 -0.821428,-0.392857 0,-0.216969 0.367766,-0.392857 0.821428,-0.392857 0.453663,0 0.821429,0.175888 0.821429,0.392857 z"
           sodipodi:ry="0.39285713"
           sodipodi:rx="0.8214286"
           sodipodi:cy="30.678572"
           sodipodi:cx="23.607143"
           id="path3754"
           style="fill:none;stroke:url(#linearGradient3758);stroke-width:0.68701333;stroke-linecap:butt;stroke-linejoin:bevel;stroke-miterlimit:4;stroke-opacity:1;stroke-dasharray:none;stroke-dashoffset:0"
           sodipodi:type="arc" />
      </g>
      <g
         transform="translate(-13.122217,-8.7048373)"
         id="g3764">
        <path
           sodipodi:type="arc"
           style="fill:none;stroke:url(#linearGradient3770);stroke-width:0.5;stroke-linecap:butt;stroke-linejoin:bevel;stroke-miterlimit:4;stroke-opacity:1;stroke-dasharray:none;stroke-dashoffset:0"
           id="path3766"
           sodipodi:cx="23.607143"
           sodipodi:cy="30.678572"
           sodipodi:rx="0.8214286"
           sodipodi:ry="0.39285713"
           d="m 24.428572,30.678572 c 0,0.216969 -0.367766,0.392857 -0.821429,0.392857 -0.453662,0 -0.821428,-0.175888 -0.821428,-0.392857 0,-0.216969 0.367766,-0.392857 0.821428,-0.392857 0.453663,0 0.821429,0.175888 0.821429,0.392857 z"
           transform="matrix(0.69292237,0,0,0.69292237,10.471312,5.7613959)" />
        <path
           transform="matrix(0.4372858,0,0,0.37221467,16.506161,15.60025)"
           d="m 24.428572,30.678572 c 0,0.216969 -0.367766,0.392857 -0.821429,0.392857 -0.453662,0 -0.821428,-0.175888 -0.821428,-0.392857 0,-0.216969 0.367766,-0.392857 0.821428,-0.392857 0.453663,0 0.821429,0.175888 0.821429,0.392857 z"
           sodipodi:ry="0.39285713"
           sodipodi:rx="0.8214286"
           sodipodi:cy="30.678572"
           sodipodi:cx="23.607143"
           id="path3768"
           style="fill:none;stroke:url(#linearGradient3772);stroke-width:0.68701333;stroke-linecap:butt;stroke-linejoin:bevel;stroke-miterlimit:4;stroke-opacity:1;stroke-dasharray:none;stroke-dashoffset:0"
           sodipodi:type="arc" />
      </g>
      <g
         id="g3774"
         transform="translate(-1.4724596,-11.519834)">
        <path
           transform="matrix(0.69292237,0,0,0.69292237,10.471312,5.7613959)"
           d="m 24.428572,30.678572 c 0,0.216969 -0.367766,0.392857 -0.821429,0.392857 -0.453662,0 -0.821428,-0.175888 -0.821428,-0.392857 0,-0.216969 0.367766,-0.392857 0.821428,-0.392857 0.453663,0 0.821429,0.175888 0.821429,0.392857 z"
           sodipodi:ry="0.39285713"
           sodipodi:rx="0.8214286"
           sodipodi:cy="30.678572"
           sodipodi:cx="23.607143"
           id="path3776"
           style="fill:none;stroke:url(#linearGradient3780);stroke-width:0.5;stroke-linecap:butt;stroke-linejoin:bevel;stroke-miterlimit:4;stroke-opacity:1;stroke-dasharray:none;stroke-dashoffset:0"
           sodipodi:type="arc" />
        <path
           sodipodi:type="arc"
           style="fill:none;stroke:url(#linearGradient3782);stroke-width:0.68701333;stroke-linecap:butt;stroke-linejoin:bevel;stroke-miterlimit:4;stroke-opacity:1;stroke-dasharray:none;stroke-dashoffset:0"
           id="path3778"
           sodipodi:cx="23.607143"
           sodipodi:cy="30.678572"
           sodipodi:rx="0.8214286"
           sodipodi:ry="0.39285713"
           d="m 24.428572,30.678572 c 0,0.216969 -0.367766,0.392857 -0.821429,0.392857 -0.453662,0 -0.821428,-0.175888 -0.821428,-0.392857 0,-0.216969 0.367766,-0.392857 0.821428,-0.392857 0.453663,0 0.821429,0.175888 0.821429,0.392857 z"
           transform="matrix(0.4372858,0,0,0.37221467,16.506161,15.60025)" />
      </g>
      <g
         transform="translate(5.6733024,-8.315068)"
         id="g3784">
        <path
           sodipodi:type="arc"
           style="fill:none;stroke:url(#linearGradient3790);stroke-width:0.5;stroke-linecap:butt;stroke-linejoin:bevel;stroke-miterlimit:4;stroke-opacity:1;stroke-dasharray:none;stroke-dashoffset:0"
           id="path3786"
           sodipodi:cx="23.607143"
           sodipodi:cy="30.678572"
           sodipodi:rx="0.8214286"
           sodipodi:ry="0.39285713"
           d="m 24.428572,30.678572 c 0,0.216969 -0.367766,0.392857 -0.821429,0.392857 -0.453662,0 -0.821428,-0.175888 -0.821428,-0.392857 0,-0.216969 0.367766,-0.392857 0.821428,-0.392857 0.453663,0 0.821429,0.175888 0.821429,0.392857 z"
           transform="matrix(0.69292237,0,0,0.69292237,10.471312,5.7613959)" />
        <path
           transform="matrix(0.4372858,0,0,0.37221467,16.506161,15.60025)"
           d="m 24.428572,30.678572 c 0,0.216969 -0.367766,0.392857 -0.821429,0.392857 -0.453662,0 -0.821428,-0.175888 -0.821428,-0.392857 0,-0.216969 0.367766,-0.392857 0.821428,-0.392857 0.453663,0 0.821429,0.175888 0.821429,0.392857 z"
           sodipodi:ry="0.39285713"
           sodipodi:rx="0.8214286"
           sodipodi:cy="30.678572"
           sodipodi:cx="23.607143"
           id="path3788"
           style="fill:none;stroke:url(#linearGradient3792);stroke-width:0.68701333;stroke-linecap:butt;stroke-linejoin:bevel;stroke-miterlimit:4;stroke-opacity:1;stroke-dasharray:none;stroke-dashoffset:0"
           sodipodi:type="arc" />
      </g>
      <g
         id="g3794"
         transform="translate(-7.1024538,-4.374072)">
        <path
           transform="matrix(0.69292237,0,0,0.69292237,10.471312,5.7613959)"
           d="m 24.428572,30.678572 c 0,0.216969 -0.367766,0.392857 -0.821429,0.392857 -0.453662,0 -0.821428,-0.175888 -0.821428,-0.392857 0,-0.216969 0.367766,-0.392857 0.821428,-0.392857 0.453663,0 0.821429,0.175888 0.821429,0.392857 z"
           sodipodi:ry="0.39285713"
           sodipodi:rx="0.8214286"
           sodipodi:cy="30.678572"
           sodipodi:cx="23.607143"
           id="path3796"
           style="fill:none;stroke:url(#linearGradient3800);stroke-width:0.5;stroke-linecap:butt;stroke-linejoin:bevel;stroke-miterlimit:4;stroke-opacity:1;stroke-dasharray:none;stroke-dashoffset:0"
           sodipodi:type="arc" />
        <path
           sodipodi:type="arc"
           style="fill:none;stroke:url(#linearGradient3802);stroke-width:0.68701333;stroke-linecap:butt;stroke-linejoin:bevel;stroke-miterlimit:4;stroke-opacity:1;stroke-dasharray:none;stroke-dashoffset:0"
           id="path3798"
           sodipodi:cx="23.607143"
           sodipodi:cy="30.678572"
           sodipodi:rx="0.8214286"
           sodipodi:ry="0.39285713"
           d="m 24.428572,30.678572 c 0,0.216969 -0.367766,0.392857 -0.821429,0.392857 -0.453662,0 -0.821428,-0.175888 -0.821428,-0.392857 0,-0.216969 0.367766,-0.392857 0.821428,-0.392857 0.453663,0 0.821429,0.175888 0.821429,0.392857 z"
           transform="matrix(0.4372858,0,0,0.37221467,16.506161,15.60025)" />
      </g>
      <path
         style="fill:none;stroke:#898989;stroke-width:0.30000001;stroke-linecap:butt;stroke-linejoin:miter;stroke-miterlimit:4;stroke-opacity:1;stroke-dasharray:none"
         d="m 7.8665629,17.152467 9.8994951,-2.43068 8.26431,0.353554 4.375224,2.386485 0,2.032932 4.065864,0.176777 5.612659,3.093592 1e-6,3.270369 -12.683728,4.110058 -7.336233,-0.883884 -4.728777,-2.916815 -0.309359,-2.96101 -4.419417,-0.08839 L 5.3916892,19.9367 7.8665629,17.152467 z"
         id="path3804"
         transform="matrix(0.69292237,0,0,0.69292237,10.471312,5.7613959)"
         sodipodi:nodetypes="ccccccccccccccc" />
      <g
         id="g3830"
         transform="translate(-0.03062313,0.36747758)">
        <rect
           transform="matrix(0.94500654,-0.32705144,0,1,0,0)"
           y="39.90564"
           x="39.161713"
           height="1.2559218"
           width="4.8119278"
           id="rect3806"
           style="fill:#000000;fill-opacity:1;stroke:#585858;stroke-width:0.21383975;stroke-linecap:butt;stroke-linejoin:bevel;stroke-miterlimit:4;stroke-opacity:1;stroke-dasharray:none;stroke-dashoffset:0" />
        <path
           transform="matrix(0.69292237,0,0,0.69292237,5.4799324,6.4214912)"
           d="m 47.0625,30.195312 c 0,0.159645 -0.129418,0.289063 -0.289063,0.289063 -0.159644,0 -0.289062,-0.129418 -0.289062,-0.289063 0,-0.159644 0.129418,-0.289062 0.289062,-0.289062 0.159645,0 0.289063,0.129418 0.289063,0.289062 z"
           sodipodi:ry="0.2890625"
           sodipodi:rx="0.2890625"
           sodipodi:cy="30.195312"
           sodipodi:cx="46.773438"
           id="path3808"
           style="fill:url(#radialGradient3837);fill-opacity:1;stroke:none"
           sodipodi:type="arc" />
        <path
           sodipodi:type="arc"
           style="fill:url(#radialGradient3839);fill-opacity:1;stroke:none"
           id="path3818"
           sodipodi:cx="46.773438"
           sodipodi:cy="30.195312"
           sodipodi:rx="0.2890625"
           sodipodi:ry="0.2890625"
           d="m 47.0625,30.195312 c 0,0.159645 -0.129418,0.289063 -0.289063,0.289063 -0.159644,0 -0.289062,-0.129418 -0.289062,-0.289063 0,-0.159644 0.129418,-0.289062 0.289062,-0.289062 0.159645,0 0.289063,0.129418 0.289063,0.289062 z"
           transform="matrix(0.69292237,0,0,0.69292237,6.4341633,6.1096761)" />
        <path
           transform="matrix(0.69292237,0,0,0.69277255,7.3885821,5.8024282)"
           d="m 47.0625,30.195312 c 0,0.159645 -0.129418,0.289063 -0.289063,0.289063 -0.159644,0 -0.289062,-0.129418 -0.289062,-0.289063 0,-0.159644 0.129418,-0.289062 0.289062,-0.289062 0.159645,0 0.289063,0.129418 0.289063,0.289062 z"
           sodipodi:ry="0.2890625"
           sodipodi:rx="0.2890625"
           sodipodi:cy="30.195312"
           sodipodi:cx="46.773438"
           id="path3822"
           style="fill:url(#radialGradient3841);fill-opacity:1;stroke:none"
           sodipodi:type="arc" />
        <path
           sodipodi:type="arc"
           style="fill:url(#radialGradient3843);fill-opacity:1;stroke:none"
           id="path3826"
           sodipodi:cx="46.773438"
           sodipodi:cy="30.195312"
           sodipodi:rx="0.2890625"
           sodipodi:ry="0.2890625"
           d="m 47.0625,30.195312 c 0,0.159645 -0.129418,0.289063 -0.289063,0.289063 -0.159644,0 -0.289062,-0.129418 -0.289062,-0.289063 0,-0.159644 0.129418,-0.289062 0.289062,-0.289062 0.159645,0 0.289063,0.129418 0.289063,0.289062 z"
           transform="matrix(0.69292237,0,0,0.69292237,8.3430043,5.4857876)" />
      </g>
      <rect
         style="fill:#000000;fill-opacity:1;stroke:#585858;stroke-width:0.14311044;stroke-miterlimit:4;stroke-opacity:1;stroke-dasharray:none"
         id="rect3845"
         width="2.4938588"
         height="1.2992294"
         x="36.405209"
         y="41.098656"
         transform="matrix(0.93774876,-0.34731435,0,1,0,0)" />
      <path
         sodipodi:type="arc"
         style="fill:#e6bb12;fill-opacity:1;stroke:none"
         id="path3847"
         sodipodi:cx="35.375"
         sodipodi:cy="36.6875"
         sodipodi:rx="0.34375"
         sodipodi:ry="0.34375"
         d="m 35.71875,36.6875 c 0,0.189848 -0.153902,0.34375 -0.34375,0.34375 -0.189848,0 -0.34375,-0.153902 -0.34375,-0.34375 0,-0.189848 0.153902,-0.34375 0.34375,-0.34375 0.189848,0 0.34375,0.153902 0.34375,0.34375 z"
         transform="matrix(0.37008354,0,0,0.37008354,21.445126,15.172197)" />
      <path
         transform="matrix(0.37008354,0,0,0.37008354,21.434299,15.572793)"
         d="m 35.71875,36.6875 c 0,0.189848 -0.153902,0.34375 -0.34375,0.34375 -0.189848,0 -0.34375,-0.153902 -0.34375,-0.34375 0,-0.189848 0.153902,-0.34375 0.34375,-0.34375 0.189848,0 0.34375,0.153902 0.34375,0.34375 z"
         sodipodi:ry="0.34375"
         sodipodi:rx="0.34375"
         sodipodi:cy="36.6875"
         sodipodi:cx="35.375"
         id="path3849"
         style="fill:#e6bb12;fill-opacity:1;stroke:none"
         sodipodi:type="arc" />
      <path
         transform="matrix(0.37008354,0,0,0.37008354,22.922956,14.652852)"
         d="m 35.71875,36.6875 c 0,0.189848 -0.153902,0.34375 -0.34375,0.34375 -0.189848,0 -0.34375,-0.153902 -0.34375,-0.34375 0,-0.189848 0.153902,-0.34375 0.34375,-0.34375 0.189848,0 0.34375,0.153902 0.34375,0.34375 z"
         sodipodi:ry="0.34375"
         sodipodi:rx="0.34375"
         sodipodi:cy="36.6875"
         sodipodi:cx="35.375"
         id="path3851"
         style="fill:#e6bb12;fill-opacity:1;stroke:none"
         sodipodi:type="arc" />
      <path
         sodipodi:type="arc"
         style="fill:#e6bb12;fill-opacity:1;stroke:none"
         id="path3853"
         sodipodi:cx="35.375"
         sodipodi:cy="36.6875"
         sodipodi:rx="0.34375"
         sodipodi:ry="0.34375"
         d="m 35.71875,36.6875 c 0,0.189848 -0.153902,0.34375 -0.34375,0.34375 -0.189848,0 -0.34375,-0.153902 -0.34375,-0.34375 0,-0.189848 0.153902,-0.34375 0.34375,-0.34375 0.189848,0 0.34375,0.153902 0.34375,0.34375 z"
         transform="matrix(0.37008354,0,0,0.37008354,22.912129,15.053448)" />
      <path
         sodipodi:type="arc"
         style="fill:#e6bb12;fill-opacity:1;stroke:none"
         id="path3855"
         sodipodi:cx="35.375"
         sodipodi:cy="36.6875"
         sodipodi:rx="0.34375"
         sodipodi:ry="0.34375"
         d="m 35.71875,36.6875 c 0,0.189848 -0.153902,0.34375 -0.34375,0.34375 -0.189848,0 -0.34375,-0.153902 -0.34375,-0.34375 0,-0.189848 0.153902,-0.34375 0.34375,-0.34375 0.189848,0 0.34375,0.153902 0.34375,0.34375 z"
         transform="matrix(0.37008354,0,0,0.37008354,22.430376,14.826082)" />
      <path
         transform="matrix(0.37008354,0,0,0.37008354,22.419549,15.226678)"
         d="m 35.71875,36.6875 c 0,0.189848 -0.153902,0.34375 -0.34375,0.34375 -0.189848,0 -0.34375,-0.153902 -0.34375,-0.34375 0,-0.189848 0.153902,-0.34375 0.34375,-0.34375 0.189848,0 0.34375,0.153902 0.34375,0.34375 z"
         sodipodi:ry="0.34375"
         sodipodi:rx="0.34375"
         sodipodi:cy="36.6875"
         sodipodi:cx="35.375"
         id="path3857"
         style="fill:#e6bb12;fill-opacity:1;stroke:none"
         sodipodi:type="arc" />
      <path
         transform="matrix(0.37008354,0,0,0.37008354,21.937751,14.999313)"
         d="m 35.71875,36.6875 c 0,0.189848 -0.153902,0.34375 -0.34375,0.34375 -0.189848,0 -0.34375,-0.153902 -0.34375,-0.34375 0,-0.189848 0.153902,-0.34375 0.34375,-0.34375 0.189848,0 0.34375,0.153902 0.34375,0.34375 z"
         sodipodi:ry="0.34375"
         sodipodi:rx="0.34375"
         sodipodi:cy="36.6875"
         sodipodi:cx="35.375"
         id="path3859"
         style="fill:#e6bb12;fill-opacity:1;stroke:none"
         sodipodi:type="arc" />
      <path
         sodipodi:type="arc"
         style="fill:#e6bb12;fill-opacity:1;stroke:none"
         id="path3861"
         sodipodi:cx="35.375"
         sodipodi:cy="36.6875"
         sodipodi:rx="0.34375"
         sodipodi:ry="0.34375"
         d="m 35.71875,36.6875 c 0,0.189848 -0.153902,0.34375 -0.34375,0.34375 -0.189848,0 -0.34375,-0.153902 -0.34375,-0.34375 0,-0.189848 0.153902,-0.34375 0.34375,-0.34375 0.189848,0 0.34375,0.153902 0.34375,0.34375 z"
         transform="matrix(0.37008354,0,0,0.37008354,21.926924,15.399909)" />
      <rect
         style="fill:#191919;fill-opacity:1;stroke:none"
         id="rect3863"
         width="6.5954647"
         height="0.80119151"
         x="28.968981"
         y="41.100658"
         transform="matrix(0.94226074,-0.33488012,0,1,0,0)" />
    </g>
  </g>
</svg>
