<?xml version="1.0" encoding="UTF-8" standalone="no"?>
<!-- Created with Inkscape (http://www.inkscape.org/) -->

<svg
   xmlns:dc="http://purl.org/dc/elements/1.1/"
   xmlns:cc="http://creativecommons.org/ns#"
   xmlns:rdf="http://www.w3.org/1999/02/22-rdf-syntax-ns#"
   xmlns:svg="http://www.w3.org/2000/svg"
   xmlns="http://www.w3.org/2000/svg"
   xmlns:xlink="http://www.w3.org/1999/xlink"
   xmlns:sodipodi="http://sodipodi.sourceforge.net/DTD/sodipodi-0.dtd"
   xmlns:inkscape="http://www.inkscape.org/namespaces/inkscape"
   width="48px"
   height="48px"
   id="svg2383"
   sodipodi:version="0.32"
   inkscape:version="0.47 r22583"
   sodipodi:docname="file_yellow_paintings_open.svg"
   inkscape:output_extension="org.inkscape.output.svg.inkscape"
   version="1.1">
  <title
     id="title2969">Open File with Paintings</title>
  <defs
     id="defs2385">
    <linearGradient
       inkscape:collect="always"
       id="linearGradient6141">
      <stop
         style="stop-color:#110e00;stop-opacity:1"
         offset="0"
         id="stop6143" />
      <stop
         style="stop-color:#cea700;stop-opacity:1"
         offset="1"
         id="stop6145" />
    </linearGradient>
    <marker
       inkscape:stockid="Arrow1Mend"
       orient="auto"
       refY="0.0"
       refX="0.0"
       id="Arrow1Mend"
       style="overflow:visible;">
      <path
         id="path3654"
         d="M 0.0,0.0 L 5.0,-5.0 L -12.5,0.0 L 5.0,5.0 L 0.0,0.0 z "
         style="fill-rule:evenodd;stroke:#000000;stroke-width:1.0pt;marker-start:none;"
         transform="scale(0.4) rotate(180) translate(10,0)" />
    </marker>
    <marker
       inkscape:stockid="Arrow2Mend"
       orient="auto"
       refY="0.0"
       refX="0.0"
       id="Arrow2Mend"
       style="overflow:visible;">
      <path
         id="path3672"
         style="font-size:12.0;fill-rule:evenodd;stroke-width:0.62500000;stroke-linejoin:round;"
         d="M 8.7185878,4.0337352 L -2.2072895,0.016013256 L 8.7185884,-4.0017078 C 6.9730900,-1.6296469 6.9831476,1.6157441 8.7185878,4.0337352 z "
         transform="scale(0.6) rotate(180) translate(0,0)" />
    </marker>
    <marker
       inkscape:stockid="Arrow2Lend"
       orient="auto"
       refY="0.0"
       refX="0.0"
       id="Arrow2Lend"
       style="overflow:visible;">
      <path
         id="path3666"
         style="font-size:12.0;fill-rule:evenodd;stroke-width:0.62500000;stroke-linejoin:round;"
         d="M 8.7185878,4.0337352 L -2.2072895,0.016013256 L 8.7185884,-4.0017078 C 6.9730900,-1.6296469 6.9831476,1.6157441 8.7185878,4.0337352 z "
         transform="scale(1.1) rotate(180) translate(1,0)" />
    </marker>
    <linearGradient
       id="linearGradient3355">
      <stop
         id="stop3357"
         offset="0"
         style="stop-color:#e4bc00;stop-opacity:0" />
      <stop
         id="stop3359"
         offset="1"
         style="stop-color:#977d00;stop-opacity:0.69915253" />
    </linearGradient>
    <linearGradient
       id="linearGradient3349">
      <stop
         style="stop-color:#e4bc00;stop-opacity:0"
         offset="0"
         id="stop3351" />
      <stop
         style="stop-color:#ffea82;stop-opacity:1"
         offset="1"
         id="stop3353" />
    </linearGradient>
    <linearGradient
       id="linearGradient3343">
      <stop
         id="stop3345"
         offset="0"
         style="stop-color:#e4bc00;stop-opacity:0" />
      <stop
         id="stop3347"
         offset="1"
         style="stop-color:#ffea82;stop-opacity:1" />
    </linearGradient>
    <linearGradient
       id="linearGradient3319">
      <stop
         style="stop-color:#e4bc00;stop-opacity:0"
         offset="0"
         id="stop3321" />
      <stop
         style="stop-color:#ffea82;stop-opacity:1"
         offset="1"
         id="stop3323" />
    </linearGradient>
    <linearGradient
       id="linearGradient3300">
      <stop
         id="stop3302"
         offset="0"
         style="stop-color:#e4bc00;stop-opacity:0" />
      <stop
         id="stop3304"
         offset="1"
         style="stop-color:#ffea82;stop-opacity:1" />
    </linearGradient>
    <linearGradient
       id="linearGradient3266">
      <stop
         style="stop-color:#e4bc00;stop-opacity:0"
         offset="0"
         id="stop3268" />
      <stop
         style="stop-color:#977d00;stop-opacity:0.69915253"
         offset="1"
         id="stop3270" />
    </linearGradient>
    <linearGradient
       id="linearGradient3183">
      <stop
         id="stop3185"
         offset="0"
         style="stop-color:#e2e77c;stop-opacity:1;" />
      <stop
         id="stop3187"
         offset="1"
         style="stop-color:#e2e2e2;stop-opacity:1" />
    </linearGradient>
    <linearGradient
       id="linearGradient3167">
      <stop
         style="stop-color:#f9ff63;stop-opacity:1;"
         offset="0"
         id="stop3169" />
      <stop
         style="stop-color:#ffffe5;stop-opacity:1"
         offset="1"
         id="stop3171" />
    </linearGradient>
    <inkscape:perspective
       sodipodi:type="inkscape:persp3d"
       inkscape:vp_x="0 : 24 : 1"
       inkscape:vp_y="0 : 1000 : 0"
       inkscape:vp_z="48 : 24 : 1"
       inkscape:persp3d-origin="24 : 16 : 1"
       id="perspective2391" />
    <linearGradient
       inkscape:collect="always"
       xlink:href="#linearGradient3167"
       id="linearGradient3173"
       x1="30.704245"
       y1="23.666496"
       x2="6.8631134"
       y2="13.658123"
       gradientUnits="userSpaceOnUse" />
    <linearGradient
       inkscape:collect="always"
       xlink:href="#linearGradient3183"
       id="linearGradient3181"
       x1="32.320488"
       y1="28.305334"
       x2="8"
       y2="11.738832"
       gradientUnits="userSpaceOnUse" />
    <linearGradient
       inkscape:collect="always"
       xlink:href="#linearGradient3167"
       id="linearGradient3191"
       gradientUnits="userSpaceOnUse"
       x1="30.704245"
       y1="23.666496"
       x2="6.8631134"
       y2="13.658123" />
    <linearGradient
       inkscape:collect="always"
       xlink:href="#linearGradient3183"
       id="linearGradient3193"
       gradientUnits="userSpaceOnUse"
       x1="32.320488"
       y1="28.305334"
       x2="8"
       y2="11.738832" />
    <linearGradient
       inkscape:collect="always"
       xlink:href="#linearGradient3167"
       id="linearGradient3198"
       gradientUnits="userSpaceOnUse"
       x1="30.704245"
       y1="23.666496"
       x2="6.8631134"
       y2="13.658123"
       gradientTransform="matrix(-0.7508431,0,0,-0.7552532,61.279192,10.45427)" />
    <filter
       inkscape:collect="always"
       id="filter3442"
       x="-0.14558539"
       width="1.2911708"
       y="-0.10206325"
       height="1.2041265">
      <feGaussianBlur
         inkscape:collect="always"
         stdDeviation="1.7648438"
         id="feGaussianBlur3444" />
    </filter>
    <filter
       inkscape:collect="always"
       id="filter3458"
       x="-0.45812156"
       width="1.9162431"
       y="-0.50407294"
       height="2.0081459">
      <feGaussianBlur
         inkscape:collect="always"
         stdDeviation="2.1593751"
         id="feGaussianBlur3460" />
    </filter>
    <linearGradient
       inkscape:collect="always"
       xlink:href="#linearGradient3167"
       id="linearGradient3462"
       gradientUnits="userSpaceOnUse"
       x1="30.704245"
       y1="23.666496"
       x2="6.8631134"
       y2="13.658123"
       gradientTransform="matrix(0.750843,0,0,0.7552533,19.46662,0.2583518)" />
    <linearGradient
       inkscape:collect="always"
       xlink:href="#linearGradient3183"
       id="linearGradient3464"
       gradientUnits="userSpaceOnUse"
       x1="32.320488"
       y1="28.305334"
       x2="8"
       y2="11.738832"
       gradientTransform="matrix(0.750843,0,0,0.7552533,19.46662,0.2583518)" />
    <linearGradient
       inkscape:collect="always"
       xlink:href="#linearGradient3266"
       id="linearGradient3272"
       x1="33.525192"
       y1="43.421875"
       x2="33.596569"
       y2="45.24015"
       gradientUnits="userSpaceOnUse"
       gradientTransform="matrix(1,0,-0.2229635,0.9260928,-11.307566,3.3343306)" />
    <linearGradient
       inkscape:collect="always"
       xlink:href="#linearGradient3355"
       id="linearGradient3285"
       x1="41.21875"
       y1="38.453125"
       x2="46.375"
       y2="38.453125"
       gradientUnits="userSpaceOnUse"
       gradientTransform="matrix(1,0,-0.2229635,0.9260928,-11.307566,3.3343306)" />
    <linearGradient
       inkscape:collect="always"
       xlink:href="#linearGradient3349"
       id="linearGradient3298"
       x1="34.737377"
       y1="33.950935"
       x2="34.758247"
       y2="31.375048"
       gradientUnits="userSpaceOnUse"
       gradientTransform="matrix(1,0,-0.2229635,0.9260928,-11.307566,3.3343306)" />
    <linearGradient
       inkscape:collect="always"
       xlink:href="#linearGradient3319"
       id="linearGradient3317"
       x1="24.6875"
       y1="37.948048"
       x2="22.668337"
       y2="38.049065"
       gradientUnits="userSpaceOnUse"
       gradientTransform="matrix(1,0,-0.2229635,0.9260928,-11.307566,3.3343306)" />
    <linearGradient
       inkscape:collect="always"
       xlink:href="#linearGradient3355"
       id="linearGradient3337"
       gradientUnits="userSpaceOnUse"
       x1="48.794895"
       y1="19.563272"
       x2="52.73896"
       y2="19.563272"
       gradientTransform="matrix(0.3500169,0,-4.8091605e-2,0.1997515,-2.5268805,27.499416)" />
    <linearGradient
       inkscape:collect="always"
       xlink:href="#linearGradient3349"
       id="linearGradient3339"
       gradientUnits="userSpaceOnUse"
       x1="40.70771"
       y1="16.273266"
       x2="40.70771"
       y2="12.172647"
       gradientTransform="matrix(0.3500169,0,-4.8091605e-2,0.1997515,-2.5268805,27.499416)" />
    <linearGradient
       inkscape:collect="always"
       xlink:href="#linearGradient3343"
       id="linearGradient3341"
       gradientUnits="userSpaceOnUse"
       x1="32.869736"
       y1="19.563272"
       x2="29.234329"
       y2="19.563272"
       gradientTransform="matrix(0.3500169,0,-4.8091605e-2,0.1997515,-2.5268805,27.499416)" />
    <filter
       inkscape:collect="always"
       id="filter6084">
      <feGaussianBlur
         inkscape:collect="always"
         stdDeviation="0.68422834"
         id="feGaussianBlur6086" />
    </filter>
    <radialGradient
       inkscape:collect="always"
       xlink:href="#linearGradient6141"
       id="radialGradient6147"
       cx="10.05395"
       cy="36.003441"
       fx="10.05395"
       fy="36.003441"
       r="12.032135"
       gradientTransform="matrix(0.721303,-0.6926197,0.4281682,0.4458999,-14.682096,29.194049)"
       gradientUnits="userSpaceOnUse" />
    <filter
       inkscape:collect="always"
       id="filter6159"
       x="-0.0861774"
       width="1.1723548"
       y="-0.14039775"
       height="1.2807955">
      <feGaussianBlur
         inkscape:collect="always"
         stdDeviation="0.86408176"
         id="feGaussianBlur6161" />
    </filter>
    <inkscape:perspective
       id="perspective5935"
       inkscape:persp3d-origin="0.5 : 0.33333333 : 1"
       inkscape:vp_z="1 : 0.5 : 1"
       inkscape:vp_y="0 : 1000 : 0"
       inkscape:vp_x="0 : 0.5 : 1"
       sodipodi:type="inkscape:persp3d" />
    <filter
       color-interpolation-filters="sRGB"
       inkscape:collect="always"
       id="filter3720-0">
      <feGaussianBlur
         inkscape:collect="always"
         stdDeviation="1.0371025"
         id="feGaussianBlur3722-9" />
    </filter>
    <linearGradient
       inkscape:collect="always"
       xlink:href="#linearGradient3604-8"
       id="linearGradient3421"
       gradientUnits="userSpaceOnUse"
       gradientTransform="matrix(0.4881758,0,0,0.4881758,13.408096,19.053321)"
       x1="25.428572"
       y1="30.285715"
       x2="15.571426"
       y2="10.785714" />
    <linearGradient
       inkscape:collect="always"
       id="linearGradient3604-8">
      <stop
         style="stop-color:#47c4e7;stop-opacity:1"
         offset="0"
         id="stop3606-8" />
      <stop
         style="stop-color:#d3f1f9;stop-opacity:1"
         offset="1"
         id="stop3608-2" />
    </linearGradient>
    <linearGradient
       inkscape:collect="always"
       xlink:href="#linearGradient3643-5"
       id="linearGradient3423"
       gradientUnits="userSpaceOnUse"
       gradientTransform="matrix(0.4881758,0,0,0.4881758,13.408096,19.053321)"
       x1="15.285714"
       y1="34.392857"
       x2="12.214285"
       y2="20.928572" />
    <linearGradient
       inkscape:collect="always"
       id="linearGradient3643-5">
      <stop
         style="stop-color:#71baec;stop-opacity:1"
         offset="0"
         id="stop3645-5" />
      <stop
         style="stop-color:#1770ae;stop-opacity:1"
         offset="1"
         id="stop3647-1" />
    </linearGradient>
    <linearGradient
       inkscape:collect="always"
       xlink:href="#linearGradient3653-1"
       id="linearGradient3425"
       gradientUnits="userSpaceOnUse"
       gradientTransform="matrix(0.4881758,0,0,0.4881758,13.408096,19.053321)"
       x1="29.979811"
       y1="33.42857"
       x2="38.285713"
       y2="21.928572" />
    <linearGradient
       inkscape:collect="always"
       id="linearGradient3653-1">
      <stop
         style="stop-color:#ebd683;stop-opacity:1"
         offset="0"
         id="stop3655-1" />
      <stop
         style="stop-color:#c1a32e;stop-opacity:1"
         offset="1"
         id="stop3657-5" />
    </linearGradient>
    <linearGradient
       inkscape:collect="always"
       xlink:href="#linearGradient3663-7"
       id="linearGradient3427"
       gradientUnits="userSpaceOnUse"
       gradientTransform="matrix(0.4881758,0,0,0.4881758,13.408096,19.053321)"
       x1="37.5"
       y1="20.855158"
       x2="40.5"
       y2="22.35516" />
    <linearGradient
       inkscape:collect="always"
       id="linearGradient3663-7">
      <stop
         style="stop-color:#afac9d;stop-opacity:1"
         offset="0"
         id="stop3665-6" />
      <stop
         style="stop-color:#85816c;stop-opacity:1"
         offset="1"
         id="stop3667-1" />
    </linearGradient>
    <radialGradient
       inkscape:collect="always"
       xlink:href="#linearGradient3673-2"
       id="radialGradient3429"
       gradientUnits="userSpaceOnUse"
       gradientTransform="matrix(2.4917562,-8.862328e-8,8.9864923e-8,2.3392586,-14.43807,-16.310255)"
       cx="9.6785717"
       cy="12.178572"
       fx="9.6785717"
       fy="12.178572"
       r="2.1071429" />
    <linearGradient
       inkscape:collect="always"
       id="linearGradient3673-2">
      <stop
         style="stop-color:#fdffb5;stop-opacity:1"
         offset="0"
         id="stop3675-3" />
      <stop
         style="stop-color:#f5fc00;stop-opacity:0.67219919"
         offset="1"
         id="stop3677-2" />
    </linearGradient>
    <filter
       color-interpolation-filters="sRGB"
       inkscape:collect="always"
       id="filter3693-2"
       x="-0.195053"
       width="1.390106"
       y="-0.195053"
       height="1.390106">
      <feGaussianBlur
         inkscape:collect="always"
         stdDeviation="0.3425038"
         id="feGaussianBlur3695-1" />
    </filter>
    <linearGradient
       inkscape:collect="always"
       xlink:href="#linearGradient3604-8"
       id="linearGradient3383"
       gradientUnits="userSpaceOnUse"
       gradientTransform="matrix(0.4881758,0,0,0.4881758,13.408096,19.053321)"
       x1="25.428572"
       y1="30.285715"
       x2="15.571426"
       y2="10.785714" />
    <linearGradient
       inkscape:collect="always"
       xlink:href="#linearGradient3643-5"
       id="linearGradient3385"
       gradientUnits="userSpaceOnUse"
       gradientTransform="matrix(0.4881758,0,0,0.4881758,13.408096,19.053321)"
       x1="15.285714"
       y1="34.392857"
       x2="12.214285"
       y2="20.928572" />
    <linearGradient
       inkscape:collect="always"
       xlink:href="#linearGradient3653-1"
       id="linearGradient3387"
       gradientUnits="userSpaceOnUse"
       gradientTransform="matrix(0.4881758,0,0,0.4881758,13.408096,19.053321)"
       x1="29.979811"
       y1="33.42857"
       x2="38.285713"
       y2="21.928572" />
    <linearGradient
       inkscape:collect="always"
       xlink:href="#linearGradient3663-7"
       id="linearGradient3389"
       gradientUnits="userSpaceOnUse"
       gradientTransform="matrix(0.4881758,0,0,0.4881758,13.408096,19.053321)"
       x1="37.5"
       y1="20.855158"
       x2="40.5"
       y2="22.35516" />
    <radialGradient
       inkscape:collect="always"
       xlink:href="#linearGradient3673-2"
       id="radialGradient3391"
       gradientUnits="userSpaceOnUse"
       gradientTransform="matrix(2.4917562,-8.862328e-8,8.9864923e-8,2.3392586,-14.43807,-16.310255)"
       cx="9.6785717"
       cy="12.178572"
       fx="9.6785717"
       fy="12.178572"
       r="2.1071429" />
    <linearGradient
       inkscape:collect="always"
       xlink:href="#linearGradient3604-8"
       id="linearGradient3345"
       gradientUnits="userSpaceOnUse"
       gradientTransform="matrix(0.4881758,0,0,0.4881758,13.408096,19.053321)"
       x1="25.428572"
       y1="30.285715"
       x2="15.571426"
       y2="10.785714" />
    <linearGradient
       inkscape:collect="always"
       xlink:href="#linearGradient3643-5"
       id="linearGradient3347"
       gradientUnits="userSpaceOnUse"
       gradientTransform="matrix(0.4881758,0,0,0.4881758,13.408096,19.053321)"
       x1="15.285714"
       y1="34.392857"
       x2="12.214285"
       y2="20.928572" />
    <linearGradient
       inkscape:collect="always"
       xlink:href="#linearGradient3653-1"
       id="linearGradient3349-6"
       gradientUnits="userSpaceOnUse"
       gradientTransform="matrix(0.4881758,0,0,0.4881758,13.408096,19.053321)"
       x1="29.979811"
       y1="33.42857"
       x2="38.285713"
       y2="21.928572" />
    <linearGradient
       inkscape:collect="always"
       xlink:href="#linearGradient3663-7"
       id="linearGradient3351"
       gradientUnits="userSpaceOnUse"
       gradientTransform="matrix(0.4881758,0,0,0.4881758,13.408096,19.053321)"
       x1="37.5"
       y1="20.855158"
       x2="40.5"
       y2="22.35516" />
    <radialGradient
       inkscape:collect="always"
       xlink:href="#linearGradient3673-2"
       id="radialGradient3353"
       gradientUnits="userSpaceOnUse"
       gradientTransform="matrix(2.4917562,-8.862328e-8,8.9864923e-8,2.3392586,-14.43807,-16.310255)"
       cx="9.6785717"
       cy="12.178572"
       fx="9.6785717"
       fy="12.178572"
       r="2.1071429" />
  </defs>
  <sodipodi:namedview
     id="base"
     pagecolor="#ffffff"
     bordercolor="#666666"
     borderopacity="1.0"
     inkscape:pageopacity="0.0"
     inkscape:pageshadow="2"
     inkscape:zoom="9.8994949"
     inkscape:cx="7.388995"
     inkscape:cy="23.677966"
     inkscape:current-layer="layer1"
     showgrid="true"
     inkscape:grid-bbox="true"
     inkscape:document-units="px"
     inkscape:window-width="1680"
     inkscape:window-height="1000"
     inkscape:window-x="-8"
     inkscape:window-y="-8"
     inkscape:window-maximized="1">
    <inkscape:grid
       type="xygrid"
       id="grid2393"
       visible="true"
       enabled="true"
       empspacing="4" />
  </sodipodi:namedview>
  <metadata
     id="metadata2388">
    <rdf:RDF>
      <cc:Work
         rdf:about="">
        <dc:format>image/svg+xml</dc:format>
        <dc:type
           rdf:resource="http://purl.org/dc/dcmitype/StillImage" />
        <dc:creator>
          <cc:Agent>
            <dc:title>Florian Haag</dc:title>
          </cc:Agent>
        </dc:creator>
        <dc:rights>
          <cc:Agent>
            <dc:title>Florian Haag</dc:title>
          </cc:Agent>
        </dc:rights>
        <dc:title>Open File with Paintings</dc:title>
        <dc:date>2010-02-03</dc:date>
        <dc:publisher>
          <cc:Agent>
            <dc:title>Florian Haag</dc:title>
          </cc:Agent>
        </dc:publisher>
        <dc:identifier>http://toolbaricons.sourceforge.net/icons/Modern3D/filesystem/file_yellow_paintings_open</dc:identifier>
        <cc:license
           rdf:resource="http://creativecommons.org/licenses/MIT/" />
      </cc:Work>
    </rdf:RDF>
  </metadata>
  <g
     id="layer1"
     inkscape:label="file"
     inkscape:groupmode="layer">
    <path
       id="path3384"
       d="m 24.326936,4.5000001 -17.7812495,0 0,41.4999999 29.0937495,0 0,-31.21875 -11.3125,-10.2812499 z"
       style="fill:#828282;fill-opacity:1;fill-rule:nonzero;stroke:none;stroke-width:0.91741109;marker:none;visibility:visible;display:inline;overflow:visible;filter:url(#filter3442);enable-background:accumulate"
       transform="matrix(0.7508431,0,0,0.7552532,20.498194,0.2583528)" />
    <path
       style="fill:url(#linearGradient3462);fill-opacity:1;fill-rule:nonzero;stroke:url(#linearGradient3464);stroke-width:0.69085175;stroke-linecap:butt;stroke-linejoin:miter;stroke-miterlimit:4;stroke-opacity:1;stroke-dasharray:none;stroke-dashoffset:0;marker:none;visibility:visible;display:inline;overflow:visible;enable-background:accumulate"
       d="m 36.266733,1.3912318 -13.350928,0 0,31.3430082 21.844839,0 0,-23.57806 -8.493911,-7.7649482 z"
       id="path3196" />
    <path
       id="path3202"
       d="m 36.858186,13.382266 -11.3125,-10.2812508 0,10.2812508 11.3125,0 z"
       style="fill:#545454;fill-opacity:1;fill-rule:nonzero;stroke:none;stroke-width:0.917;marker:none;visibility:visible;display:inline;overflow:visible;filter:url(#filter3458);enable-background:accumulate"
       transform="matrix(0.7508431,0,0,0.7552532,16.053523,0.2583528)" />
    <path
       style="fill:url(#linearGradient3198);fill-opacity:1;fill-rule:nonzero;stroke:none;stroke-width:0.917;marker:none;visibility:visible;display:inline;overflow:visible;enable-background:accumulate"
       d="m 44.479078,9.321392 -8.493911,-7.7649482 0,7.7649482 8.493911,0 z"
       id="rect2395" />
    <flowRoot
       xml:space="preserve"
       id="flowRoot2401"
       style="font-size:2px;font-style:normal;font-weight:normal;fill:#000000;fill-opacity:1;stroke:none;font-family:Bitstream Vera Sans"
       transform="matrix(0.7508431,0,0,0.7552532,16.053523,0.2583528)"><flowRegion
         id="flowRegion2403"><rect
           id="rect2405"
           width="21.112188"
           height="33.941124"
           x="13.030968"
           y="6.0786691"
           style="font-size:2px" /></flowRegion><flowPara
         id="flowPara2407" /></flowRoot>    <g
       id="g3330"
       transform="matrix(0.68748986,0,0,0.68748986,18.899611,3.9273203)">
      <rect
         style="fill:#5c5c5c;fill-opacity:1;stroke:none;filter:url(#filter3720-0)"
         id="rect3170"
         width="41.25"
         height="32.125"
         x="37"
         y="0.12499989"
         transform="matrix(0.4881758,0,0,0.4881758,-2.7017054,22.958728)" />
      <rect
         style="fill:url(#linearGradient3345);fill-opacity:1;stroke:none"
         id="rect3172"
         width="19.108595"
         height="14.784753"
         x="14.837753"
         y="22.610031" />
      <rect
         style="fill:url(#linearGradient3347);fill-opacity:1;stroke:none"
         id="rect3174"
         width="19.492161"
         height="8.1246395"
         x="14.489056"
         y="29.270142" />
      <path
         style="fill:url(#linearGradient3349-6);fill-opacity:1;stroke:none"
         d="m 33.423304,29.758318 c -1.11583,0.03487 -4.288973,0.278958 -4.498192,0.767134 -0.209218,0.488176 -0.871742,0.557916 -1.255308,0.732264 -0.383568,0.174348 -0.871743,0.697394 -0.836874,0.941482 0.03487,0.244087 1.743486,0.174348 3.905407,0.697394 2.161921,0.523045 -4.219234,0.557915 -4.916628,0.697394 -0.697393,0.139479 -2.406009,0.488176 -3.4521,1.046091 -1.046091,0.557915 7.392377,1.394788 9.170731,1.464527 1.778355,0.06974 2.26653,0.06974 2.26653,0.06974 l -0.383566,-6.416026 z"
         id="path3176" />
      <path
         style="fill:url(#linearGradient3351);fill-opacity:1;stroke:none"
         d="m 30.912685,30.176755 c 0.10461,0.209219 0.383567,0 0.592786,0.348697 0.209217,0.348698 0.139478,0.418437 0.453306,0.557916 0.313827,0.139479 0.174348,-0.244089 0.557914,-0.278958 0.383567,-0.03487 0.139479,0.244088 0.557916,0.383567 0.418436,0.139478 0.941482,-0.209219 0.941482,-0.209219 l -0.174348,-3.731057 -0.941483,0.557915 -0.139478,-0.383567 c 0,0 -0.10461,0.383567 -0.418437,0.523045 -0.313827,0.139479 -0.592784,-0.383567 -0.592784,-0.383567 l -0.453307,0.209219 -0.383567,2.406009 z"
         id="path3178" />
      <path
         sodipodi:type="arc"
         style="fill:url(#radialGradient3353);fill-opacity:1;stroke:none;filter:url(#filter3693-2)"
         id="path3180"
         sodipodi:cx="9.6785717"
         sodipodi:cy="12.178572"
         sodipodi:rx="2.1071429"
         sodipodi:ry="2.1071429"
         d="m 11.785715,12.178572 c 0,1.163743 -0.9434,2.107143 -2.1071433,2.107143 -1.1637429,0 -2.1071429,-0.9434 -2.1071429,-2.107143 0,-1.163743 0.9434,-2.107143 2.1071429,-2.107143 1.1637433,0 2.1071433,0.9434 2.1071433,2.107143 z"
         transform="matrix(0.4881758,0,0,0.4881758,13.303487,18.739494)" />
      <path
         style="fill:#e0d794;fill-opacity:1;stroke:none"
         d="m 18.77803,32.547895 -0.06102,0.231011 c -0.669789,0.488176 -1.126,0.621118 -1.617082,0.640731 l -0.339979,-0.07192 2.018084,-0.799824 z"
         id="path3182"
         sodipodi:nodetypes="ccccc" />
      <path
         style="fill:#efeac7;fill-opacity:1;stroke:none"
         d="m 18.172169,32.43021 0.605861,0.117685 c -0.591332,0.35015 -0.716282,0.621842 -2.022443,0.802003 0.366132,-0.546291 0.928406,-0.7003 1.416582,-0.919688 z"
         id="path3184"
         sodipodi:nodetypes="cccc" />
      <path
         style="fill:#b5a73f;fill-opacity:1;stroke:none"
         d="m 18,32.645966 -0.213578,0.09154 0.518688,0.122045 c 0.04713,-0.03062 0.09714,-0.06303 0.144927,-0.09535 L 18,32.645966 z"
         id="path3186"
         sodipodi:nodetypes="ccccc" />
      <path
         style="fill:#b5a73f;fill-opacity:1;stroke:none"
         d="m 17.618612,32.859543 -0.213576,0.09154 0.503431,0.122043 c 0.06784,-0.02902 0.125125,-0.06032 0.183065,-0.09154 l -0.47292,-0.122043 z"
         id="path3188" />
      <g
         transform="matrix(0.4881758,0,0,0.4881758,13.216313,18.826668)"
         id="g3190">
        <rect
           y="7.1931305"
           x="2.9788449"
           height="30.685167"
           width="39.256596"
           id="rect3192"
           style="fill:none;stroke:#885600;stroke-width:3;stroke-linecap:butt;stroke-linejoin:miter;stroke-miterlimit:4;stroke-opacity:1;stroke-dasharray:none;stroke-dashoffset:0" />
        <rect
           style="fill:none;stroke:#b57300;stroke-width:1.39999998;stroke-linecap:butt;stroke-linejoin:miter;stroke-miterlimit:4;stroke-opacity:1;stroke-dasharray:none;stroke-dashoffset:0"
           id="rect3194"
           width="39.256596"
           height="30.685167"
           x="2.9788449"
           y="7.1931305" />
      </g>
    </g>
    <g
       transform="matrix(0.68748986,0,0,0.68748986,16.898514,2.0294654)"
       id="g3355">
      <rect
         transform="matrix(0.4881758,0,0,0.4881758,-2.7017054,22.958728)"
         y="0.12499989"
         x="37"
         height="32.125"
         width="41.25"
         id="rect3357"
         style="fill:#5c5c5c;fill-opacity:1;stroke:none;filter:url(#filter3720-0)" />
      <rect
         y="22.610031"
         x="14.837753"
         height="14.784753"
         width="19.108595"
         id="rect3359"
         style="fill:url(#linearGradient3383);fill-opacity:1;stroke:none" />
      <rect
         y="29.270142"
         x="14.489056"
         height="8.1246395"
         width="19.492161"
         id="rect3361-8"
         style="fill:url(#linearGradient3385);fill-opacity:1;stroke:none" />
      <path
         id="path3363"
         d="m 33.423304,29.758318 c -1.11583,0.03487 -4.288973,0.278958 -4.498192,0.767134 -0.209218,0.488176 -0.871742,0.557916 -1.255308,0.732264 -0.383568,0.174348 -0.871743,0.697394 -0.836874,0.941482 0.03487,0.244087 1.743486,0.174348 3.905407,0.697394 2.161921,0.523045 -4.219234,0.557915 -4.916628,0.697394 -0.697393,0.139479 -2.406009,0.488176 -3.4521,1.046091 -1.046091,0.557915 7.392377,1.394788 9.170731,1.464527 1.778355,0.06974 2.26653,0.06974 2.26653,0.06974 l -0.383566,-6.416026 z"
         style="fill:url(#linearGradient3387);fill-opacity:1;stroke:none" />
      <path
         id="path3365"
         d="m 30.912685,30.176755 c 0.10461,0.209219 0.383567,0 0.592786,0.348697 0.209217,0.348698 0.139478,0.418437 0.453306,0.557916 0.313827,0.139479 0.174348,-0.244089 0.557914,-0.278958 0.383567,-0.03487 0.139479,0.244088 0.557916,0.383567 0.418436,0.139478 0.941482,-0.209219 0.941482,-0.209219 l -0.174348,-3.731057 -0.941483,0.557915 -0.139478,-0.383567 c 0,0 -0.10461,0.383567 -0.418437,0.523045 -0.313827,0.139479 -0.592784,-0.383567 -0.592784,-0.383567 l -0.453307,0.209219 -0.383567,2.406009 z"
         style="fill:url(#linearGradient3389);fill-opacity:1;stroke:none" />
      <path
         transform="matrix(0.4881758,0,0,0.4881758,13.303487,18.739494)"
         d="m 11.785715,12.178572 c 0,1.163743 -0.9434,2.107143 -2.1071433,2.107143 -1.1637429,0 -2.1071429,-0.9434 -2.1071429,-2.107143 0,-1.163743 0.9434,-2.107143 2.1071429,-2.107143 1.1637433,0 2.1071433,0.9434 2.1071433,2.107143 z"
         sodipodi:ry="2.1071429"
         sodipodi:rx="2.1071429"
         sodipodi:cy="12.178572"
         sodipodi:cx="9.6785717"
         id="path3367"
         style="fill:url(#radialGradient3391);fill-opacity:1;stroke:none;filter:url(#filter3693-2)"
         sodipodi:type="arc" />
      <path
         sodipodi:nodetypes="ccccc"
         id="path3369"
         d="m 18.77803,32.547895 -0.06102,0.231011 c -0.669789,0.488176 -1.126,0.621118 -1.617082,0.640731 l -0.339979,-0.07192 2.018084,-0.799824 z"
         style="fill:#e0d794;fill-opacity:1;stroke:none" />
      <path
         sodipodi:nodetypes="cccc"
         id="path3371"
         d="m 18.172169,32.43021 0.605861,0.117685 c -0.591332,0.35015 -0.716282,0.621842 -2.022443,0.802003 0.366132,-0.546291 0.928406,-0.7003 1.416582,-0.919688 z"
         style="fill:#efeac7;fill-opacity:1;stroke:none" />
      <path
         sodipodi:nodetypes="ccccc"
         id="path3373"
         d="m 18,32.645966 -0.213578,0.09154 0.518688,0.122045 c 0.04713,-0.03062 0.09714,-0.06303 0.144927,-0.09535 L 18,32.645966 z"
         style="fill:#b5a73f;fill-opacity:1;stroke:none" />
      <path
         id="path3375"
         d="m 17.618612,32.859543 -0.213576,0.09154 0.503431,0.122043 c 0.06784,-0.02902 0.125125,-0.06032 0.183065,-0.09154 l -0.47292,-0.122043 z"
         style="fill:#b5a73f;fill-opacity:1;stroke:none" />
      <g
         id="g3377"
         transform="matrix(0.4881758,0,0,0.4881758,13.216313,18.826668)">
        <rect
           style="fill:none;stroke:#885600;stroke-width:3;stroke-linecap:butt;stroke-linejoin:miter;stroke-miterlimit:4;stroke-opacity:1;stroke-dasharray:none;stroke-dashoffset:0"
           id="rect3379"
           width="39.256596"
           height="30.685167"
           x="2.9788449"
           y="7.1931305" />
        <rect
           y="7.1931305"
           x="2.9788449"
           height="30.685167"
           width="39.256596"
           id="rect3381"
           style="fill:none;stroke:#b57300;stroke-width:1.39999998;stroke-linecap:butt;stroke-linejoin:miter;stroke-miterlimit:4;stroke-opacity:1;stroke-dasharray:none;stroke-dashoffset:0" />
      </g>
    </g>
    <g
       id="g3393"
       transform="matrix(0.68748986,0,0,0.68748986,14.919516,0.29681545)">
      <rect
         style="fill:#5c5c5c;fill-opacity:1;stroke:none;filter:url(#filter3720-0)"
         id="rect3395"
         width="41.25"
         height="32.125"
         x="37"
         y="0.12499989"
         transform="matrix(0.4881758,0,0,0.4881758,-2.7017054,22.958728)" />
      <rect
         style="fill:url(#linearGradient3421);fill-opacity:1;stroke:none"
         id="rect3397"
         width="19.108595"
         height="14.784753"
         x="14.837753"
         y="22.610031" />
      <rect
         style="fill:url(#linearGradient3423);fill-opacity:1;stroke:none"
         id="rect3399"
         width="19.492161"
         height="8.1246395"
         x="14.489056"
         y="29.270142" />
      <path
         style="fill:url(#linearGradient3425);fill-opacity:1;stroke:none"
         d="m 33.423304,29.758318 c -1.11583,0.03487 -4.288973,0.278958 -4.498192,0.767134 -0.209218,0.488176 -0.871742,0.557916 -1.255308,0.732264 -0.383568,0.174348 -0.871743,0.697394 -0.836874,0.941482 0.03487,0.244087 1.743486,0.174348 3.905407,0.697394 2.161921,0.523045 -4.219234,0.557915 -4.916628,0.697394 -0.697393,0.139479 -2.406009,0.488176 -3.4521,1.046091 -1.046091,0.557915 7.392377,1.394788 9.170731,1.464527 1.778355,0.06974 2.26653,0.06974 2.26653,0.06974 l -0.383566,-6.416026 z"
         id="path3401" />
      <path
         style="fill:url(#linearGradient3427);fill-opacity:1;stroke:none"
         d="m 30.912685,30.176755 c 0.10461,0.209219 0.383567,0 0.592786,0.348697 0.209217,0.348698 0.139478,0.418437 0.453306,0.557916 0.313827,0.139479 0.174348,-0.244089 0.557914,-0.278958 0.383567,-0.03487 0.139479,0.244088 0.557916,0.383567 0.418436,0.139478 0.941482,-0.209219 0.941482,-0.209219 l -0.174348,-3.731057 -0.941483,0.557915 -0.139478,-0.383567 c 0,0 -0.10461,0.383567 -0.418437,0.523045 -0.313827,0.139479 -0.592784,-0.383567 -0.592784,-0.383567 l -0.453307,0.209219 -0.383567,2.406009 z"
         id="path3403" />
      <path
         sodipodi:type="arc"
         style="fill:url(#radialGradient3429);fill-opacity:1;stroke:none;filter:url(#filter3693-2)"
         id="path3405"
         sodipodi:cx="9.6785717"
         sodipodi:cy="12.178572"
         sodipodi:rx="2.1071429"
         sodipodi:ry="2.1071429"
         d="m 11.785715,12.178572 c 0,1.163743 -0.9434,2.107143 -2.1071433,2.107143 -1.1637429,0 -2.1071429,-0.9434 -2.1071429,-2.107143 0,-1.163743 0.9434,-2.107143 2.1071429,-2.107143 1.1637433,0 2.1071433,0.9434 2.1071433,2.107143 z"
         transform="matrix(0.4881758,0,0,0.4881758,13.303487,18.739494)" />
      <path
         style="fill:#e0d794;fill-opacity:1;stroke:none"
         d="m 18.77803,32.547895 -0.06102,0.231011 c -0.669789,0.488176 -1.126,0.621118 -1.617082,0.640731 l -0.339979,-0.07192 2.018084,-0.799824 z"
         id="path3407"
         sodipodi:nodetypes="ccccc" />
      <path
         style="fill:#efeac7;fill-opacity:1;stroke:none"
         d="m 18.172169,32.43021 0.605861,0.117685 c -0.591332,0.35015 -0.716282,0.621842 -2.022443,0.802003 0.366132,-0.546291 0.928406,-0.7003 1.416582,-0.919688 z"
         id="path3409"
         sodipodi:nodetypes="cccc" />
      <path
         style="fill:#b5a73f;fill-opacity:1;stroke:none"
         d="m 18,32.645966 -0.213578,0.09154 0.518688,0.122045 c 0.04713,-0.03062 0.09714,-0.06303 0.144927,-0.09535 L 18,32.645966 z"
         id="path3411"
         sodipodi:nodetypes="ccccc" />
      <path
         style="fill:#b5a73f;fill-opacity:1;stroke:none"
         d="m 17.618612,32.859543 -0.213576,0.09154 0.503431,0.122043 c 0.06784,-0.02902 0.125125,-0.06032 0.183065,-0.09154 l -0.47292,-0.122043 z"
         id="path3413" />
      <g
         transform="matrix(0.4881758,0,0,0.4881758,13.216313,18.826668)"
         id="g3415">
        <rect
           y="7.1931305"
           x="2.9788449"
           height="30.685167"
           width="39.256596"
           id="rect3417"
           style="fill:none;stroke:#885600;stroke-width:3;stroke-linecap:butt;stroke-linejoin:miter;stroke-miterlimit:4;stroke-opacity:1;stroke-dasharray:none;stroke-dashoffset:0" />
        <rect
           style="fill:none;stroke:#b57300;stroke-width:1.39999998;stroke-linecap:butt;stroke-linejoin:miter;stroke-miterlimit:4;stroke-opacity:1;stroke-dasharray:none;stroke-dashoffset:0"
           id="rect3419"
           width="39.256596"
           height="30.685167"
           x="2.9788449"
           y="7.1931305" />
      </g>
    </g>
  </g>
  <g
     inkscape:groupmode="layer"
     id="layer2"
     inkscape:label="directory"
     sodipodi:insensitive="true">
    <rect
       ry="1.5"
       rx="1.5"
       y="32.090858"
       x="1.9853783"
       height="14.770865"
       width="24.06427"
       id="rect6149"
       style="fill:#686868;fill-opacity:1;fill-rule:nonzero;stroke:none;stroke-width:1;marker:none;visibility:visible;display:inline;overflow:visible;filter:url(#filter6159);enable-background:accumulate" />
    <rect
       style="fill:url(#radialGradient6147);fill-opacity:1;fill-rule:nonzero;stroke:none;stroke-width:1;marker:none;visibility:visible;display:inline;overflow:visible;enable-background:accumulate"
       id="rect2444"
       width="24.06427"
       height="14.770865"
       x="1"
       y="31"
       rx="1.5"
       ry="1.5" />
    <rect
       ry="1.4288321"
       rx="1.5"
       y="33.032734"
       x="11.808251"
       height="14.070057"
       width="24.06427"
       id="rect6131"
       style="fill:#e4bc00;fill-opacity:1;fill-rule:nonzero;stroke:none;stroke-width:1;marker:none;visibility:visible;display:inline;overflow:visible;enable-background:accumulate"
       transform="matrix(1,0,-0.234069,0.97222,0,0)" />
    <rect
       ry="0.30818859"
       rx="0.52502531"
       y="30.789265"
       x="14.131245"
       height="3.0348079"
       width="8.4229002"
       id="rect3325"
       style="fill:#e4bc00;fill-opacity:1;fill-rule:nonzero;stroke:none;stroke-width:1;marker:none;visibility:visible;display:inline;overflow:visible;enable-background:accumulate"
       transform="matrix(1,0,-0.234069,0.97222,0,0)" />
    <path
       id="path3329"
       d="m 13.542468,29.93092 -0.710854,2.952575 1.27975,0 c 0.290863,0 0.557199,-0.133635 0.597163,-0.299627 l 0.566579,-2.353321 C 15.31507,30.064553 15.113081,29.93092 14.822218,29.93092 l -1.27975,0 z"
       style="fill:url(#linearGradient3337);fill-opacity:1;fill-rule:nonzero;stroke:none;stroke-width:1;marker:none;visibility:visible;display:inline;overflow:visible;enable-background:accumulate" />
    <path
       id="path3331"
       d="m 7.4499881,29.93092 c -0.290864,0 -0.5571991,0.133633 -0.597163,0.299627 l -0.1668185,0.692887 8.4222814,0 0.166818,-0.692887 C 15.31507,30.064553 15.113081,29.93092 14.822218,29.93092 l -7.3722299,0 z"
       style="fill:url(#linearGradient3339);fill-opacity:1;fill-rule:nonzero;stroke:none;stroke-width:1;marker:none;visibility:visible;display:inline;overflow:visible;enable-background:accumulate" />
    <path
       id="path3333"
       d="m 7.4499881,29.93092 c -0.290864,0 -0.5571991,0.133633 -0.597163,0.299627 l -0.5665792,2.353321 c -0.039964,0.165992 0.1620232,0.299627 0.4528872,0.299627 l 1.1375553,0 0.7108549,-2.952575 -1.1375552,0 z"
       style="fill:url(#linearGradient3341);fill-opacity:1;fill-rule:nonzero;stroke:none;stroke-width:1;marker:none;visibility:visible;display:inline;overflow:visible;enable-background:accumulate" />
    <path
       style="fill:url(#linearGradient3272);fill-opacity:1;fill-rule:nonzero;stroke:none;stroke-width:1;marker:none;visibility:visible;display:inline;overflow:visible;enable-background:accumulate"
       d="m 1.8634275,41.304131 -0.7455344,3.096623 c -0.18528273,0.769583 0.334555,1.389138 1.1655547,1.389139 l 21.0625002,0 c 0.831,0 1.649163,-0.619557 1.834445,-1.389139 l 0.738566,-3.067682 -23.906249,0 c -0.052452,0 -0.099409,-0.02412 -0.1492825,-0.02894 z"
       id="rect3253" />
    <path
       style="fill:url(#linearGradient3285);fill-opacity:1;fill-rule:nonzero;stroke:none;stroke-width:1;marker:none;visibility:visible;display:inline;overflow:visible;enable-background:accumulate"
       d="m 22.985378,32.101086 -3.29568,13.688807 3.65625,0 c 0.831,0 1.649163,-0.619557 1.834445,-1.389139 l 2.62679,-10.910529 c 0.185282,-0.769583 -0.334555,-1.389139 -1.165555,-1.389139 l -3.65625,0 z"
       id="rect3274" />
    <path
       style="fill:url(#linearGradient3298);fill-opacity:1;fill-rule:nonzero;stroke:none;stroke-width:1;marker:none;visibility:visible;display:inline;overflow:visible;enable-background:accumulate"
       d="m 5.579128,32.101086 c -0.831,0 -1.6491625,0.619556 -1.8344451,1.389139 l -0.7734051,3.212383 24.0625002,0 0.773405,-3.212383 c 0.185282,-0.769583 -0.334555,-1.389139 -1.165555,-1.389139 l -21.0625,0 z"
       id="rect3287" />
    <path
       style="fill:url(#linearGradient3317);fill-opacity:1;fill-rule:nonzero;stroke:none;stroke-width:1;marker:none;visibility:visible;display:inline;overflow:visible;enable-background:accumulate"
       d="m 5.579128,32.101086 c -0.831,0 -1.6491625,0.619556 -1.8344451,1.389139 L 1.1178931,44.400754 c -0.18528273,0.769583 0.334555,1.389138 1.1655547,1.389139 l 3.2500001,0 3.2956804,-13.688807 -3.2500003,0 z"
       id="rect3306" />
  </g>
  <g
     inkscape:groupmode="layer"
     id="layer3"
     inkscape:label="arrow"
     sodipodi:insensitive="true">
    <path
       id="path6006"
       d="m 2.5571956,7.0000002 0,5.9999998 9.0000004,0 0,7 -4.1562504,0 7.0625004,6 7,-6 -3.90625,0 0,-10 -3,-2.9999998 -12.0000004,0 z"
       style="fill:#535353;fill-opacity:1;fill-rule:evenodd;stroke:none;filter:url(#filter6084)"
       transform="matrix(0,-1,1,0,-4.3886641,28.510321)" />
    <path
       style="fill:#02dd00;fill-opacity:1;fill-rule:evenodd;stroke:none"
       d="m 2.0859547,25.064293 6,0 0,-9 7.0000003,0 0,4.15625 6,-7.0625 -6,-7.0000002 0,3.9062502 -10.0000003,0 -3,3 0,12 z"
       id="path3640" />
  </g>
</svg>
