<?xml version="1.0" encoding="UTF-8" standalone="no"?>
<!-- Created with Inkscape (http://www.inkscape.org/) -->

<svg
   xmlns:dc="http://purl.org/dc/elements/1.1/"
   xmlns:cc="http://creativecommons.org/ns#"
   xmlns:rdf="http://www.w3.org/1999/02/22-rdf-syntax-ns#"
   xmlns:svg="http://www.w3.org/2000/svg"
   xmlns="http://www.w3.org/2000/svg"
   xmlns:xlink="http://www.w3.org/1999/xlink"
   xmlns:sodipodi="http://sodipodi.sourceforge.net/DTD/sodipodi-0.dtd"
   xmlns:inkscape="http://www.inkscape.org/namespaces/inkscape"
   width="48px"
   height="48px"
   id="svg2816"
   version="1.1"
   inkscape:version="0.47 r22583"
   sodipodi:docname="key_primary_reset.svg">
  <title
     id="title3728">Reset Primary Key</title>
  <defs
     id="defs2818">
    <inkscape:perspective
       sodipodi:type="inkscape:persp3d"
       inkscape:vp_x="0 : 24 : 1"
       inkscape:vp_y="0 : 1000 : 0"
       inkscape:vp_z="48 : 24 : 1"
       inkscape:persp3d-origin="24 : 16 : 1"
       id="perspective4153" />
    <linearGradient
       inkscape:collect="always"
       id="linearGradient3597">
      <stop
         style="stop-color:#ffffff;stop-opacity:1;"
         offset="0"
         id="stop3599" />
      <stop
         style="stop-color:#c2c2c2;stop-opacity:1"
         offset="1"
         id="stop3601" />
    </linearGradient>
    <linearGradient
       inkscape:collect="always"
       id="linearGradient3618">
      <stop
         style="stop-color:#5d7eff;stop-opacity:1"
         offset="0"
         id="stop3620" />
      <stop
         style="stop-color:#001876;stop-opacity:1"
         offset="1"
         id="stop3622" />
    </linearGradient>
    <filter
       inkscape:collect="always"
       id="filter3615">
      <feGaussianBlur
         inkscape:collect="always"
         stdDeviation="0.57857144"
         id="feGaussianBlur3617" />
    </filter>
    <linearGradient
       inkscape:collect="always"
       xlink:href="#linearGradient3597"
       id="linearGradient2839"
       gradientUnits="userSpaceOnUse"
       x1="7.0714307"
       y1="18.535717"
       x2="45.428574"
       y2="34.25" />
    <linearGradient
       inkscape:collect="always"
       xlink:href="#linearGradient3618"
       id="linearGradient2841"
       gradientUnits="userSpaceOnUse"
       x1="0.4375"
       y1="7.9665179"
       x2="45.4375"
       y2="11.323661" />
    <filter
       color-interpolation-filters="sRGB"
       inkscape:collect="always"
       id="filter4650">
      <feGaussianBlur
         inkscape:collect="always"
         stdDeviation="0.99736166"
         id="feGaussianBlur4652" />
    </filter>
    <linearGradient
       inkscape:collect="always"
       xlink:href="#linearGradient4628"
       id="linearGradient4634"
       x1="33.046837"
       y1="30.310268"
       x2="1.875"
       y2="13.810267"
       gradientUnits="userSpaceOnUse"
       gradientTransform="matrix(1.0613269,0,0,1.0612676,-35.994376,-0.06353263)" />
    <linearGradient
       inkscape:collect="always"
       id="linearGradient4628">
      <stop
         style="stop-color:#3fb100;stop-opacity:1"
         offset="0"
         id="stop4630" />
      <stop
         style="stop-color:#91ff54;stop-opacity:1"
         offset="1"
         id="stop4632" />
    </linearGradient>
    <linearGradient
       inkscape:collect="always"
       xlink:href="#linearGradient4620"
       id="linearGradient4626"
       x1="39.30357"
       y1="45.5625"
       x2="3.8325534"
       y2="4.0245538"
       gradientUnits="userSpaceOnUse"
       gradientTransform="matrix(1.0613269,0,0,1.0612676,-35.994376,-0.06353263)" />
    <linearGradient
       inkscape:collect="always"
       id="linearGradient4620">
      <stop
         style="stop-color:#1d5200;stop-opacity:1"
         offset="0"
         id="stop4622" />
      <stop
         style="stop-color:#4ad300;stop-opacity:1"
         offset="1"
         id="stop4624" />
    </linearGradient>
    <linearGradient
       inkscape:collect="always"
       xlink:href="#linearGradient4628"
       id="linearGradient2950"
       gradientUnits="userSpaceOnUse"
       gradientTransform="matrix(1.0613269,0,0,1.0612676,-35.994376,-0.06353263)"
       x1="33.046837"
       y1="30.310268"
       x2="1.875"
       y2="13.810267" />
    <linearGradient
       inkscape:collect="always"
       xlink:href="#linearGradient4620"
       id="linearGradient2952"
       gradientUnits="userSpaceOnUse"
       gradientTransform="matrix(1.0613269,0,0,1.0612676,-35.994376,-0.06353263)"
       x1="39.30357"
       y1="45.5625"
       x2="3.8325534"
       y2="4.0245538" />
    <filter
       color-interpolation-filters="sRGB"
       inkscape:collect="always"
       id="filter3679">
      <feGaussianBlur
         inkscape:collect="always"
         stdDeviation="0.81615638"
         id="feGaussianBlur3681" />
    </filter>
    <linearGradient
       gradientTransform="matrix(0.83658292,0.83658292,-0.83658292,0.83658292,-6.2076159,-27.500966)"
       inkscape:collect="always"
       xlink:href="#linearGradient3683"
       id="linearGradient3661"
       gradientUnits="userSpaceOnUse"
       x1="46.4375"
       y1="29.004465"
       x2="0.78125"
       y2="20.647322" />
    <linearGradient
       id="linearGradient3683">
      <stop
         id="stop3685"
         offset="0"
         style="stop-color:#dba73f;stop-opacity:1" />
      <stop
         style="stop-color:#e1b55f;stop-opacity:1"
         offset="0.6070137"
         id="stop3687" />
      <stop
         style="stop-color:#fbf4e8;stop-opacity:1"
         offset="0.64681691"
         id="stop3689" />
      <stop
         style="stop-color:#e4be71;stop-opacity:1"
         offset="0.68678832"
         id="stop3691" />
      <stop
         id="stop3693"
         offset="1"
         style="stop-color:#edd4a2;stop-opacity:1" />
    </linearGradient>
    <linearGradient
       gradientTransform="matrix(0.83658292,0.83658292,-0.83658292,0.83658292,-6.2076159,-27.500966)"
       inkscape:collect="always"
       xlink:href="#linearGradient3707"
       id="linearGradient3663"
       gradientUnits="userSpaceOnUse"
       x1="46.4375"
       y1="33.29018"
       x2="3.9375"
       y2="14.9375" />
    <linearGradient
       id="linearGradient3707"
       inkscape:collect="always">
      <stop
         id="stop3709"
         offset="0"
         style="stop-color:#b48121;stop-opacity:1" />
      <stop
         id="stop3711"
         offset="1"
         style="stop-color:#e0b055;stop-opacity:1" />
    </linearGradient>
    <linearGradient
       inkscape:collect="always"
       xlink:href="#linearGradient3604"
       id="linearGradient3665"
       gradientUnits="userSpaceOnUse"
       x1="38.143795"
       y1="8.976284"
       x2="25.566011"
       y2="9.1428576" />
    <linearGradient
       inkscape:collect="always"
       id="linearGradient3604">
      <stop
         style="stop-color:#ffffff;stop-opacity:0.8"
         offset="0"
         id="stop3606" />
      <stop
         style="stop-color:#3f3f3f;stop-opacity:0.4"
         offset="1"
         id="stop3608" />
    </linearGradient>
    <linearGradient
       inkscape:collect="always"
       xlink:href="#linearGradient3683"
       id="linearGradient3977"
       gradientUnits="userSpaceOnUse"
       gradientTransform="matrix(0.83658292,0.83658292,-0.83658292,0.83658292,-6.2076159,-27.500966)"
       x1="46.4375"
       y1="29.004465"
       x2="0.78125"
       y2="20.647322" />
    <linearGradient
       inkscape:collect="always"
       xlink:href="#linearGradient3707"
       id="linearGradient3979"
       gradientUnits="userSpaceOnUse"
       gradientTransform="matrix(0.83658292,0.83658292,-0.83658292,0.83658292,-6.2076159,-27.500966)"
       x1="46.4375"
       y1="33.29018"
       x2="3.9375"
       y2="14.9375" />
    <linearGradient
       inkscape:collect="always"
       xlink:href="#linearGradient3604"
       id="linearGradient3981"
       gradientUnits="userSpaceOnUse"
       x1="38.143795"
       y1="8.976284"
       x2="25.566011"
       y2="9.1428576" />
  </defs>
  <sodipodi:namedview
     id="base"
     pagecolor="#ffffff"
     bordercolor="#666666"
     borderopacity="1.0"
     inkscape:pageopacity="0.0"
     inkscape:pageshadow="2"
     inkscape:zoom="14"
     inkscape:cx="-7.5428017"
     inkscape:cy="23.203092"
     inkscape:current-layer="layer1"
     showgrid="true"
     inkscape:grid-bbox="true"
     inkscape:document-units="px"
     inkscape:window-width="1680"
     inkscape:window-height="1000"
     inkscape:window-x="-8"
     inkscape:window-y="-8"
     inkscape:window-maximized="1">
    <inkscape:grid
       type="xygrid"
       id="grid2812"
       empspacing="12"
       visible="true"
       enabled="false"
       snapvisiblegridlinesonly="true"
       dotted="false" />
    <inkscape:grid
       type="xygrid"
       id="grid2818"
       empspacing="16"
       visible="true"
       enabled="false"
       snapvisiblegridlinesonly="true" />
    <inkscape:grid
       type="xygrid"
       id="grid2820"
       empspacing="4"
       visible="true"
       enabled="false"
       snapvisiblegridlinesonly="true" />
  </sodipodi:namedview>
  <metadata
     id="metadata2821">
    <rdf:RDF>
      <cc:Work
         rdf:about="">
        <dc:format>image/svg+xml</dc:format>
        <dc:type
           rdf:resource="http://purl.org/dc/dcmitype/StillImage" />
        <dc:title>Reset Primary Key</dc:title>
        <dc:creator>
          <cc:Agent>
            <dc:title>Florian Haag</dc:title>
          </cc:Agent>
        </dc:creator>
        <dc:rights>
          <cc:Agent>
            <dc:title>Florian Haag</dc:title>
          </cc:Agent>
        </dc:rights>
        <cc:license
           rdf:resource="" />
        <dc:identifier>http://toolbaricons.sourceforge.net/icons/Modern3D/tables/key_primary_reset</dc:identifier>
        <dc:subject>
          <rdf:Bag />
        </dc:subject>
        <dc:date>2010-08-27</dc:date>
        <dc:publisher>
          <cc:Agent>
            <dc:title>Florian Haag</dc:title>
          </cc:Agent>
        </dc:publisher>
      </cc:Work>
    </rdf:RDF>
  </metadata>
  <g
     id="layer1"
     inkscape:label="Layer 1"
     inkscape:groupmode="layer">
    <g
       id="g2832"
       transform="matrix(0.80428208,0,0,0.80428208,9.4145912,-0.9375313)">
      <rect
         rx="5"
         y="7.9285712"
         x="1.7142879"
         height="34.07143"
         width="45"
         id="rect3605"
         style="opacity:0.92610839;fill:#2a2a2a;fill-opacity:1;stroke:none;filter:url(#filter3615)" />
      <rect
         rx="5"
         y="5.9285712"
         x="0.42857361"
         height="34.07143"
         width="45"
         id="rect3595"
         style="fill:url(#linearGradient2839);fill-opacity:1;stroke:none" />
      <path
         id="rect3613"
         d="m 5.4375,5.9375 c -2.77,0 -5,2.23 -5,5 l 0,2.34375 45,0 0,-2.34375 c 0,-2.77 -2.23,-5 -5,-5 l -35,0 z"
         style="fill:url(#linearGradient2841);fill-opacity:1;stroke:none" />
      <path
         sodipodi:nodetypes="cccccccccccccccc"
         id="path3607"
         style="fill:none;stroke:#000000;stroke-width:1;stroke-linecap:butt;stroke-linejoin:miter;stroke-opacity:1"
         d="m 10.229166,6.2142857 0,33.5000003 m 9.300596,-33.5000003 0,33.5000003 m 9.300595,-33.5000003 0,33.5000003 m 9.300595,-33.5000003 0,33.5000003 M 0.92857103,13.193453 l 44.64285797,0 m -44.64285797,6.979168 44.64285797,0 m -44.64285797,6.979163 44.64285797,0 m -44.64285797,6.979167 44.64285797,0" />
      <rect
         rx="5"
         y="5.9285712"
         x="0.42857149"
         height="34.07143"
         width="45"
         id="rect3609"
         style="fill:none;stroke:#000000;stroke-opacity:1" />
    </g>
    <rect
       style="opacity:0.6;fill:#f2ca00;fill-opacity:1;stroke:none"
       id="rect2954"
       width="8.2142859"
       height="46.357143"
       x="9.6428576"
       y="0.42857143" />
    <g
       id="g3970"
       transform="matrix(0.47690933,0,0,0.47690933,14.129252,28.705723)">
      <path
         transform="matrix(1.0125723,0,0,1.0125723,-29.236119,-8.0597705)"
         style="opacity:0.95698924;fill:#111111;fill-opacity:1;stroke:none;filter:url(#filter3679)"
         d="M 40.932717,25.740817 C 37.375667,22.183767 32.081368,21.426534 27.78268,23.466356 L 8.305983,3.9896603 4.3583574,3.9635137 l -0.3884133,4.638554 2.1232031,1.286619 0.5695476,2.8402733 1.7646667,0.03174 0.360404,1.43601 2.8421405,0.750683 0.153124,3.439701 2.108265,-0.311851 0.166196,1.630216 1.406132,0.390281 0.420159,1.376253 1.376253,0.420158 0.898206,0.898207 0.571416,3.021409 3.432231,3.432231 c -1.873645,4.24543 -1.073196,9.38409 2.405176,12.862463 4.521313,4.521312 11.84434,4.521312 16.365653,0 4.521314,-4.521313 4.521314,-11.844341 0,-16.365653 z m -1.568593,9.672989 c 1.419099,1.419098 1.419099,3.704973 0,5.124071 -1.419097,1.419097 -3.704971,1.419097 -5.12407,0 -1.419098,-1.419098 -1.419098,-3.704973 0,-5.124071 1.419099,-1.419097 3.704973,-1.419097 5.12407,0 z"
         id="path3649"
         sodipodi:nodetypes="cccccccccccccccccccssccsssc" />
      <path
         style="opacity:0.95698924;fill:url(#linearGradient3977);fill-opacity:1;stroke:url(#linearGradient3979);stroke-width:1.1831069;stroke-opacity:1"
         d="M 11.125337,15.661484 C 7.5682871,12.104433 2.2739871,11.347201 -2.0247009,13.387024 l -19.4766961,-19.4766967 -3.947626,-0.026143 -0.388413,4.6385533 2.123203,1.2866196 0.569548,2.8402738 1.764667,0.031746 0.360403,1.4360088 2.842141,0.750684 0.153125,3.439701 2.108263,-0.311852 0.166196,1.630216 1.406132,0.3902812 0.420159,1.376254 1.376253,0.420158 0.898207,0.898207 0.571415,3.021408 3.4322311,3.432232 c -1.873645,4.24543 -1.073196,9.38409 2.405176,12.862462 4.52131401,4.521313 11.84434,4.521313 16.3656539,0 4.521313,-4.521313 4.521313,-11.84434 0,-16.365653 z m -1.5685929,9.67299 c 1.4190979,1.419098 1.4190979,3.704972 0,5.12407 -1.419098,1.419098 -3.704973,1.419098 -5.124071,0 -1.419098,-1.419098 -1.419098,-3.704972 0,-5.12407 1.419098,-1.419099 3.704973,-1.419099 5.124071,0 z"
         id="path2825-1"
         sodipodi:nodetypes="cccccccccccccccccccssccsssc" />
      <path
         sodipodi:type="arc"
         style="opacity:0.95698924;fill:none;stroke:url(#linearGradient3981);stroke-width:0.35305774;stroke-miterlimit:4;stroke-dasharray:none"
         id="path3601"
         sodipodi:cx="32.785713"
         sodipodi:cy="9.1428576"
         sodipodi:rx="4.9285712"
         sodipodi:ry="4.9285712"
         d="m 37.714284,9.1428576 c 0,2.7219744 -2.206596,4.9285714 -4.928571,4.9285714 -2.721975,0 -4.928571,-2.206597 -4.928571,-4.9285714 0,-2.7219748 2.206596,-4.9285713 4.928571,-4.9285713 2.721975,0 4.928571,2.2065965 4.928571,4.9285713 z"
         transform="matrix(1.4217215,1.4217215,-1.4217215,1.4217215,-30.678515,-35.781379)" />
      <path
         style="opacity:0.29292932;fill:#000000;fill-opacity:1;stroke:none"
         d="m -25.710455,-2.9263436 -0.130716,1.4378769 2.143744,1.3071608 0.366005,1.934598 0.915012,0.9150126 1.045729,0 0.313719,1.3594469 0.104572,0.104573 2.771181,0.73201 0.104573,2.143744 1.150302,1.150302 0.993442,-0.15686 0.130716,1.281018 0.470578,0.470578 0.993442,0.2614324 0.313719,1.045729 0.418291,0.418291 1.071872,0.339862 0.888869,0.888869 0.183003,0.915013 1.7777391,1.777738 c 0.746953,0.766864 1.706778,1.141587 2.692751,1.490164 -0.358536,-1.015851 -0.743215,-1.84123 -1.594736,-2.692752 L -25.710455,-2.9263436 z"
         id="path3623" />
      <path
         style="opacity:0.29292932;fill:#000000;fill-opacity:1;stroke:none"
         d="m -23.775857,-6.1158159 -1.673166,0 -0.05229,0.5751507 18.3786811,18.3786812 c 0.746953,0.766864 1.706779,1.141587 2.692751,1.490164 -0.358536,-1.015851 -0.743214,-1.84123 -1.594736,-2.692752 L -23.775857,-6.1158159 z"
         id="path3627" />
    </g>
    <g
       id="g2946"
       transform="matrix(0.45883729,0,0,0.45883729,15.856463,-0.48882543)">
      <path
         style="font-size:medium;font-style:normal;font-variant:normal;font-weight:normal;font-stretch:normal;text-indent:0;text-align:start;text-decoration:none;line-height:normal;letter-spacing:normal;word-spacing:normal;text-transform:none;direction:ltr;block-progression:tb;writing-mode:lr-tb;text-anchor:start;color:#000000;fill:#131313;fill-opacity:1;stroke:none;stroke-width:0.99999994;marker:none;visibility:visible;display:inline;overflow:visible;filter:url(#filter4650);enable-background:accumulate;font-family:Bitstream Vera Sans;-inkscape-font-specification:Bitstream Vera Sans"
         d="M -5.7135729,4.6993666 -31.085918,9.2760832 -8.7980539,22.243448 c -0.939299,-1.950136 -1.4129691,-4.0371 -1.4924911,-6.102289 4.2743181,1.14734 7.5766131,2.673554 9.91677313,4.344564 3.87588997,2.767612 5.12196697,5.597407 4.90863697,8.257989 -0.21333,2.660582 -2.050051,5.681913 -6.301628,8.291153 -4.251577,2.60924 -10.8301111,4.45802 -19.5018821,5.041021 -3.832617,0.257666 -6.209235,2.008828 0.132666,3.183803 6.341902,1.174975 3.906536,1.89512 0.165832,3.183802 9.518933,-0.422746 17.0625201,-2.620295 22.5200301,-5.96963 C 7.0073941,39.124526 10.487573,34.453246 10.902827,29.274345 11.31808,24.095444 8.4996871,18.962574 3.3408731,15.278879 0.11020313,12.971992 -4.0409179,11.104722 -9.1628849,9.806717 c 0.773645,-1.8829886 1.915563,-3.6416793 3.449312,-5.1073504 z"
         id="path4636" />
      <path
         id="path2825"
         d="M -7.5707149,3.4850809 -32.943061,8.0617975 -10.655196,21.029162 c -0.939299,-1.950136 -1.412969,-4.0371 -1.492491,-6.102289 4.2743181,1.14734 7.5766131,2.673554 9.9167731,4.344564 3.87589,2.767612 5.121967,5.597407 4.908637,8.257989 -0.21333,2.660582 -2.05005097,5.681913 -6.301628,8.291153 -4.251577,2.60924 -10.8301111,4.45802 -19.5018821,5.041021 -3.832618,0.257666 -6.209236,2.008828 0.132666,3.183803 6.341902,1.174975 3.906536,1.89512 0.165832,3.183802 9.518933,-0.422746 17.0625201,-2.620295 22.52003013,-5.96963 C 5.1502521,37.91024 8.6304311,33.23896 9.0456851,28.060059 9.4609381,22.881158 6.6425451,17.748288 1.4837311,14.064593 -1.7469389,11.757705 -5.8980599,9.8904359 -11.020027,8.5924313 -10.246382,6.7094427 -9.1044639,4.950752 -7.5707149,3.4850809 z"
         style="font-size:medium;font-style:normal;font-variant:normal;font-weight:normal;font-stretch:normal;text-indent:0;text-align:start;text-decoration:none;line-height:normal;letter-spacing:normal;word-spacing:normal;text-transform:none;direction:ltr;block-progression:tb;writing-mode:lr-tb;text-anchor:start;color:#000000;fill:url(#linearGradient2950);fill-opacity:1;stroke:url(#linearGradient2952);stroke-width:0.99999994;stroke-linejoin:round;stroke-miterlimit:4;stroke-dasharray:none;marker:none;visibility:visible;display:inline;overflow:visible;enable-background:accumulate;font-family:Bitstream Vera Sans;-inkscape-font-specification:Bitstream Vera Sans" />
    </g>
  </g>
</svg>
