<?xml version="1.0" encoding="UTF-8" standalone="no"?>
<!-- Created with Inkscape (http://www.inkscape.org/) -->

<svg
   xmlns:dc="http://purl.org/dc/elements/1.1/"
   xmlns:cc="http://creativecommons.org/ns#"
   xmlns:rdf="http://www.w3.org/1999/02/22-rdf-syntax-ns#"
   xmlns:svg="http://www.w3.org/2000/svg"
   xmlns="http://www.w3.org/2000/svg"
   xmlns:xlink="http://www.w3.org/1999/xlink"
   xmlns:sodipodi="http://sodipodi.sourceforge.net/DTD/sodipodi-0.dtd"
   xmlns:inkscape="http://www.inkscape.org/namespaces/inkscape"
   width="48px"
   height="48px"
   id="svg2816"
   version="1.1"
   inkscape:version="0.47 r22583"
   sodipodi:docname="table_column_reload.svg">
  <title
     id="title3619">Reload Table Column</title>
  <defs
     id="defs2818">
    <inkscape:perspective
       sodipodi:type="inkscape:persp3d"
       inkscape:vp_x="0 : 24 : 1"
       inkscape:vp_y="0 : 1000 : 0"
       inkscape:vp_z="48 : 24 : 1"
       inkscape:persp3d-origin="24 : 16 : 1"
       id="perspective3095" />
    <linearGradient
       inkscape:collect="always"
       id="linearGradient3597">
      <stop
         style="stop-color:#ffffff;stop-opacity:1;"
         offset="0"
         id="stop3599" />
      <stop
         style="stop-color:#c2c2c2;stop-opacity:1"
         offset="1"
         id="stop3601" />
    </linearGradient>
    <linearGradient
       inkscape:collect="always"
       id="linearGradient3618">
      <stop
         style="stop-color:#5d7eff;stop-opacity:1"
         offset="0"
         id="stop3620" />
      <stop
         style="stop-color:#001876;stop-opacity:1"
         offset="1"
         id="stop3622" />
    </linearGradient>
    <linearGradient
       inkscape:collect="always"
       xlink:href="#linearGradient3618"
       id="linearGradient3624"
       x1="0.4375"
       y1="7.9665179"
       x2="45.4375"
       y2="11.323661"
       gradientUnits="userSpaceOnUse" />
    <linearGradient
       inkscape:collect="always"
       xlink:href="#linearGradient3597"
       id="linearGradient3603"
       x1="7.0714307"
       y1="18.535717"
       x2="45.428574"
       y2="34.25"
       gradientUnits="userSpaceOnUse" />
    <filter
       inkscape:collect="always"
       id="filter3615">
      <feGaussianBlur
         inkscape:collect="always"
         stdDeviation="0.57857144"
         id="feGaussianBlur3617" />
    </filter>
    <linearGradient
       id="linearGradient3489">
      <stop
         style="stop-color:#ffffff;stop-opacity:1"
         offset="0"
         id="stop3491" />
      <stop
         id="stop3553"
         offset="0.68054533"
         style="stop-color:#ffffe0;stop-opacity:1" />
      <stop
         style="stop-color:#ffff23;stop-opacity:0.6680851"
         offset="1"
         id="stop3493" />
    </linearGradient>
    <radialGradient
       r="12.868517"
       fy="1.5725924"
       fx="2.1769085"
       cy="1.5725924"
       cx="2.1769085"
       gradientTransform="matrix(1,0,0,0.9917419,0,0.01298669)"
       gradientUnits="userSpaceOnUse"
       id="radialGradient3738"
       xlink:href="#linearGradient3489"
       inkscape:collect="always" />
    <inkscape:perspective
       id="perspective3105"
       inkscape:persp3d-origin="0.5 : 0.33333333 : 1"
       inkscape:vp_z="1 : 0.5 : 1"
       inkscape:vp_y="0 : 1000 : 0"
       inkscape:vp_x="0 : 0.5 : 1"
       sodipodi:type="inkscape:persp3d" />
    <filter
       color-interpolation-filters="sRGB"
       inkscape:collect="always"
       id="filter4650">
      <feGaussianBlur
         inkscape:collect="always"
         stdDeviation="0.99736166"
         id="feGaussianBlur4652" />
    </filter>
    <linearGradient
       inkscape:collect="always"
       xlink:href="#linearGradient4628"
       id="linearGradient3021"
       gradientUnits="userSpaceOnUse"
       gradientTransform="matrix(0.51460581,0,0,0.51457705,1.963081,13.395767)"
       x1="33.046837"
       y1="30.310268"
       x2="1.875"
       y2="13.810267" />
    <linearGradient
       inkscape:collect="always"
       id="linearGradient4628">
      <stop
         style="stop-color:#3fb100;stop-opacity:1"
         offset="0"
         id="stop4630" />
      <stop
         style="stop-color:#91ff54;stop-opacity:1"
         offset="1"
         id="stop4632" />
    </linearGradient>
    <linearGradient
       inkscape:collect="always"
       xlink:href="#linearGradient4620"
       id="linearGradient3023"
       gradientUnits="userSpaceOnUse"
       gradientTransform="matrix(0.51460581,0,0,0.51457705,1.963081,13.395767)"
       x1="39.30357"
       y1="45.5625"
       x2="3.8325534"
       y2="4.0245538" />
    <linearGradient
       inkscape:collect="always"
       id="linearGradient4620">
      <stop
         style="stop-color:#1d5200;stop-opacity:1"
         offset="0"
         id="stop4622" />
      <stop
         style="stop-color:#4ad300;stop-opacity:1"
         offset="1"
         id="stop4624" />
    </linearGradient>
    <linearGradient
       inkscape:collect="always"
       xlink:href="#linearGradient4628"
       id="linearGradient3025"
       gradientUnits="userSpaceOnUse"
       gradientTransform="matrix(0.51460581,0,0,0.51457705,23.963081,11.967196)"
       x1="33.046837"
       y1="30.310268"
       x2="1.875"
       y2="13.810267" />
    <linearGradient
       inkscape:collect="always"
       xlink:href="#linearGradient4620"
       id="linearGradient3027"
       gradientUnits="userSpaceOnUse"
       gradientTransform="matrix(0.51460581,0,0,0.51457705,23.963081,11.967196)"
       x1="39.30357"
       y1="45.5625"
       x2="3.8325534"
       y2="4.0245538" />
  </defs>
  <sodipodi:namedview
     id="base"
     pagecolor="#ffffff"
     bordercolor="#666666"
     borderopacity="1.0"
     inkscape:pageopacity="0.0"
     inkscape:pageshadow="2"
     inkscape:zoom="7"
     inkscape:cx="-4.6181339"
     inkscape:cy="14.164974"
     inkscape:current-layer="layer1"
     showgrid="true"
     inkscape:grid-bbox="true"
     inkscape:document-units="px"
     inkscape:window-width="1680"
     inkscape:window-height="1000"
     inkscape:window-x="-8"
     inkscape:window-y="-8"
     inkscape:window-maximized="1">
    <inkscape:grid
       type="xygrid"
       id="grid2812"
       empspacing="12"
       visible="true"
       enabled="false"
       snapvisiblegridlinesonly="true"
       dotted="false" />
    <inkscape:grid
       type="xygrid"
       id="grid2818"
       empspacing="16"
       visible="true"
       enabled="false"
       snapvisiblegridlinesonly="true" />
    <inkscape:grid
       type="xygrid"
       id="grid2820"
       empspacing="4"
       visible="true"
       enabled="false"
       snapvisiblegridlinesonly="true" />
  </sodipodi:namedview>
  <metadata
     id="metadata2821">
    <rdf:RDF>
      <cc:Work
         rdf:about="">
        <dc:format>image/svg+xml</dc:format>
        <dc:type
           rdf:resource="http://purl.org/dc/dcmitype/StillImage" />
        <dc:title>Reload Table Column</dc:title>
        <dc:creator>
          <cc:Agent>
            <dc:title>Florian Haag</dc:title>
          </cc:Agent>
        </dc:creator>
        <dc:rights>
          <cc:Agent>
            <dc:title>Florian Haag</dc:title>
          </cc:Agent>
        </dc:rights>
        <cc:license
           rdf:resource="" />
        <dc:identifier>http://toolbaricons.sourceforge.net/icons/Modern3D/tables/table_column_reload</dc:identifier>
        <dc:subject>
          <rdf:Bag />
        </dc:subject>
        <dc:date>2010-08-15</dc:date>
        <dc:publisher>
          <cc:Agent>
            <dc:title>Florian Haag</dc:title>
          </cc:Agent>
        </dc:publisher>
      </cc:Work>
    </rdf:RDF>
  </metadata>
  <g
     id="layer1"
     inkscape:label="Layer 1"
     inkscape:groupmode="layer">
    <rect
       style="opacity:0.92610839;fill:#2a2a2a;fill-opacity:1;stroke:none;filter:url(#filter3615)"
       id="rect3605"
       width="45"
       height="34.07143"
       x="1.7142879"
       y="7.9285717"
       rx="5" />
    <rect
       style="fill:url(#linearGradient3603);fill-opacity:1;stroke:none"
       id="rect3595"
       width="45"
       height="34.07143"
       x="0.42857361"
       y="5.9285717"
       rx="5" />
    <path
       style="fill:url(#linearGradient3624);fill-opacity:1;stroke:none"
       d="m 5.4375,5.9375 c -2.77,0 -5,2.23 -5,5 l 0,2.34375 45,0 0,-2.34375 c 0,-2.77 -2.23,-5 -5,-5 l -35,0 z"
       id="rect3613" />
    <rect
       y="5.9285717"
       x="28.785717"
       height="34.07143"
       width="9.3571444"
       id="rect3765"
       style="opacity:0.71428575999999999;fill:#c273ff;fill-opacity:1;stroke:none" />
    <path
       d="m 10.229166,6.214286 0,33.5 m 9.300596,-33.5 0,33.5 m 9.300595,-33.5 0,33.5 m 9.300595,-33.5 0,33.5 M 0.92857103,13.193453 l 44.64285797,0 m -44.64285797,6.979168 44.64285797,0 m -44.64285797,6.979163 44.64285797,0 m -44.64285797,6.979167 44.64285797,0"
       style="fill:none;stroke:#000000;stroke-width:1;stroke-linecap:butt;stroke-linejoin:miter;stroke-opacity:1"
       id="path3607"
       sodipodi:nodetypes="cccccccccccccccc" />
    <rect
       style="fill:none;stroke:#000000;stroke-opacity:1"
       id="rect3609"
       width="45"
       height="34.07143"
       x="0.42857149"
       y="5.9285717"
       rx="5" />
    <g
       id="g3013"
       transform="matrix(0.70113224,0,0,0.70113224,14.888939,23.266708)">
      <g
         transform="matrix(1,0,0,1.4120874,-0.08979941,-19.761502)"
         id="g2841">
        <path
           id="path4636"
           d="M 28.890202,3.2953482 3.5178571,7.8720648 25.805721,20.839429 c -0.939299,-1.950136 -1.412969,-4.0371 -1.492491,-6.102289 4.274318,1.14734 7.576613,2.673554 9.916773,4.344564 3.87589,2.767612 5.121967,5.597407 4.908637,8.257989 -0.21333,2.660582 -2.050051,5.681913 -6.301628,8.291153 -4.251577,2.60924 -10.830111,4.45802 -19.501882,5.041021 -3.8326175,0.257666 -6.2092352,2.008828 0.132666,3.183803 6.341902,1.174975 3.906536,1.89512 0.165832,3.183802 9.518933,-0.422746 17.06252,-2.620295 22.52003,-5.96963 5.457511,-3.349335 8.93769,-8.020615 9.352944,-13.199516 C 45.921855,22.691425 43.103462,17.558555 37.944648,13.87486 34.713978,11.567973 30.562857,9.7007032 25.44089,8.4026986 26.214535,6.51971 27.356453,4.7610193 28.890202,3.2953482 z"
           style="font-size:medium;font-style:normal;font-variant:normal;font-weight:normal;font-stretch:normal;text-indent:0;text-align:start;text-decoration:none;line-height:normal;letter-spacing:normal;word-spacing:normal;text-transform:none;direction:ltr;block-progression:tb;writing-mode:lr-tb;text-anchor:start;color:#000000;fill:#131313;fill-opacity:1;stroke:none;stroke-width:0.99999994;marker:none;visibility:visible;display:inline;overflow:visible;filter:url(#filter4650);enable-background:accumulate;font-family:Bitstream Vera Sans;-inkscape-font-specification:Bitstream Vera Sans"
           transform="matrix(-0.48487022,0,0,0.48487022,26.427351,12.964482)" />
        <path
           style="font-size:medium;font-style:normal;font-variant:normal;font-weight:normal;font-stretch:normal;text-indent:0;text-align:start;text-decoration:none;line-height:normal;letter-spacing:normal;word-spacing:normal;text-transform:none;direction:ltr;block-progression:tb;writing-mode:lr-tb;text-anchor:start;color:#000000;fill:url(#linearGradient3021);fill-opacity:1;stroke:url(#linearGradient3023);stroke-width:0.4848702;stroke-linejoin:round;stroke-miterlimit:4;stroke-dasharray:none;marker:none;visibility:visible;display:inline;overflow:visible;enable-background:accumulate;font-family:Bitstream Vera Sans;-inkscape-font-specification:Bitstream Vera Sans"
           d="m 11.518879,13.973528 12.302295,2.219113 -10.806722,6.287489 c 0.455438,-0.945563 0.685106,-1.95747 0.723664,-2.958818 -2.072489,0.556311 -3.673674,1.296326 -4.808348,2.106549 -1.879303,1.341933 -2.483489,2.714016 -2.380052,4.004053 0.103438,1.290037 0.994009,2.754991 3.055472,4.020133 2.061463,1.265143 5.251199,2.161562 9.455882,2.444241 1.858322,0.124935 3.010674,0.974021 -0.06433,1.543732 -3.074999,0.56971 -1.894163,0.918887 -0.08041,1.543731 C 14.300883,34.978774 10.643222,33.913248 7.997038,32.289255 5.350854,30.665262 3.663418,28.400297 3.462074,25.889202 3.26073,23.378108 4.627285,20.889332 7.128641,19.103218 c 1.566455,-1.118541 3.57921,-2.023925 6.0627,-2.653288 -0.375118,-0.913005 -0.9288,-1.765742 -1.672469,-2.476402 z"
           id="path2825" />
      </g>
      <g
         transform="matrix(1,0,0,1.4120874,-0.08979941,-17.744234)"
         id="g2837">
        <path
           transform="matrix(0.48487022,0,0,-0.48487022,22.637342,37.370337)"
           style="font-size:medium;font-style:normal;font-variant:normal;font-weight:normal;font-stretch:normal;text-indent:0;text-align:start;text-decoration:none;line-height:normal;letter-spacing:normal;word-spacing:normal;text-transform:none;direction:ltr;block-progression:tb;writing-mode:lr-tb;text-anchor:start;color:#000000;fill:#131313;fill-opacity:1;stroke:none;stroke-width:0.99999994;marker:none;visibility:visible;display:inline;overflow:visible;filter:url(#filter4650);enable-background:accumulate;font-family:Bitstream Vera Sans;-inkscape-font-specification:Bitstream Vera Sans"
           d="M 28.890202,3.2953482 3.5178571,7.8720648 25.805721,20.839429 c -0.939299,-1.950136 -1.412969,-4.0371 -1.492491,-6.102289 4.274318,1.14734 7.576613,2.673554 9.916773,4.344564 3.87589,2.767612 5.121967,5.597407 4.908637,8.257989 -0.21333,2.660582 -2.050051,5.681913 -6.301628,8.291153 -4.251577,2.60924 -10.830111,4.45802 -19.501882,5.041021 -3.8326175,0.257666 -6.2092352,2.008828 0.132666,3.183803 6.341902,1.174975 3.906536,1.89512 0.165832,3.183802 9.518933,-0.422746 17.06252,-2.620295 22.52003,-5.96963 5.457511,-3.349335 8.93769,-8.020615 9.352944,-13.199516 C 45.921855,22.691425 43.103462,17.558555 37.944648,13.87486 34.713978,11.567973 30.562857,9.7007032 25.44089,8.4026986 26.214535,6.51971 27.356453,4.7610193 28.890202,3.2953482 z"
           id="path2829" />
        <path
           id="path2831"
           d="M 35.74486,35.183751 23.442565,32.964638 34.249287,26.677149 c -0.455438,0.945563 -0.685106,1.95747 -0.723664,2.958818 2.072489,-0.556311 3.673674,-1.296326 4.808348,-2.106549 1.879303,-1.341933 2.483489,-2.714016 2.380052,-4.004053 -0.103438,-1.290037 -0.994009,-2.754991 -3.055472,-4.020133 -2.061463,-1.265143 -5.251199,-2.161562 -9.455882,-2.444241 -1.858322,-0.124935 -3.010674,-0.974021 0.06433,-1.543732 3.074999,-0.56971 1.894163,-0.918887 0.08041,-1.543731 4.615447,0.204977 8.273108,1.270503 10.919292,2.894496 2.646184,1.623993 4.33362,3.888958 4.534964,6.400053 0.201344,2.511094 -1.165211,4.99987 -3.666567,6.785984 -1.566455,1.118541 -3.57921,2.023925 -6.0627,2.653288 0.375118,0.913005 0.9288,1.765742 1.672469,2.476402 z"
           style="font-size:medium;font-style:normal;font-variant:normal;font-weight:normal;font-stretch:normal;text-indent:0;text-align:start;text-decoration:none;line-height:normal;letter-spacing:normal;word-spacing:normal;text-transform:none;direction:ltr;block-progression:tb;writing-mode:lr-tb;text-anchor:start;color:#000000;fill:url(#linearGradient3025);fill-opacity:1;stroke:url(#linearGradient3027);stroke-width:0.4848702;stroke-linejoin:round;stroke-miterlimit:4;stroke-dasharray:none;marker:none;visibility:visible;display:inline;overflow:visible;enable-background:accumulate;font-family:Bitstream Vera Sans;-inkscape-font-specification:Bitstream Vera Sans" />
      </g>
    </g>
  </g>
</svg>
