<?xml version="1.0" encoding="UTF-8" standalone="no"?>
<!-- Created with Inkscape (http://www.inkscape.org/) -->

<svg
   xmlns:dc="http://purl.org/dc/elements/1.1/"
   xmlns:cc="http://creativecommons.org/ns#"
   xmlns:rdf="http://www.w3.org/1999/02/22-rdf-syntax-ns#"
   xmlns:svg="http://www.w3.org/2000/svg"
   xmlns="http://www.w3.org/2000/svg"
   xmlns:xlink="http://www.w3.org/1999/xlink"
   xmlns:sodipodi="http://sodipodi.sourceforge.net/DTD/sodipodi-0.dtd"
   xmlns:inkscape="http://www.inkscape.org/namespaces/inkscape"
   width="48px"
   height="48px"
   id="svg2816"
   version="1.1"
   inkscape:version="0.47 r22583"
   sodipodi:docname="padlock_closed.svg">
  <title
     id="title3777">Closed Padlock</title>
  <defs
     id="defs2818">
    <linearGradient
       inkscape:collect="always"
       id="linearGradient3662">
      <stop
         style="stop-color:#333333;stop-opacity:1"
         offset="0"
         id="stop3664" />
      <stop
         style="stop-color:#a7a7a7;stop-opacity:1"
         offset="1"
         id="stop3666" />
    </linearGradient>
    <linearGradient
       inkscape:collect="always"
       id="linearGradient3646">
      <stop
         style="stop-color:#593737;stop-opacity:1"
         offset="0"
         id="stop3648" />
      <stop
         style="stop-color:#000000;stop-opacity:1"
         offset="1"
         id="stop3650" />
    </linearGradient>
    <linearGradient
       id="linearGradient3631">
      <stop
         id="stop3633"
         offset="0"
         style="stop-color:#2f2f2f;stop-opacity:1" />
      <stop
         style="stop-color:#565656;stop-opacity:1"
         offset="0.84746826"
         id="stop3635" />
      <stop
         id="stop3637"
         offset="1"
         style="stop-color:#878787;stop-opacity:1" />
    </linearGradient>
    <linearGradient
       inkscape:collect="always"
       id="linearGradient3605">
      <stop
         style="stop-color:#5b5b5b;stop-opacity:1"
         offset="0"
         id="stop3607" />
      <stop
         style="stop-color:#e0e0e0;stop-opacity:1"
         offset="1"
         id="stop3609" />
    </linearGradient>
    <radialGradient
       inkscape:collect="always"
       xlink:href="#linearGradient3631"
       id="radialGradient3758"
       gradientUnits="userSpaceOnUse"
       gradientTransform="matrix(0.9868791,0.24741143,-0.34884964,1.3914977,15.400913,-14.887567)"
       cx="31.627306"
       cy="18.956402"
       fx="31.627306"
       fy="18.956402"
       r="11.432078" />
    <linearGradient
       inkscape:collect="always"
       xlink:href="#linearGradient3605"
       id="linearGradient3760"
       gradientUnits="userSpaceOnUse"
       x1="35.017857"
       y1="41.76786"
       x2="12.339284"
       y2="23.232143"
       gradientTransform="translate(8,-0.99732074)" />
    <linearGradient
       inkscape:collect="always"
       xlink:href="#linearGradient3662"
       id="linearGradient3762"
       gradientUnits="userSpaceOnUse"
       x1="38.936321"
       y1="36.591118"
       x2="8.4575863"
       y2="28.055328"
       gradientTransform="translate(8,-0.99732074)" />
    <linearGradient
       inkscape:collect="always"
       xlink:href="#linearGradient3646"
       id="linearGradient3764"
       gradientUnits="userSpaceOnUse"
       x1="26.68125"
       y1="38.900002"
       x2="22.783472"
       y2="32.231472"
       gradientTransform="translate(8,-0.99732074)" />
    <filter
       inkscape:collect="always"
       id="filter3773">
      <feGaussianBlur
         inkscape:collect="always"
         stdDeviation="0.8372093"
         id="feGaussianBlur3775" />
    </filter>
  </defs>
  <sodipodi:namedview
     id="base"
     pagecolor="#ffffff"
     bordercolor="#666666"
     borderopacity="1.0"
     inkscape:pageopacity="0.0"
     inkscape:pageshadow="2"
     inkscape:zoom="14"
     inkscape:cx="16.173886"
     inkscape:cy="25.385604"
     inkscape:current-layer="g3753"
     showgrid="true"
     inkscape:grid-bbox="true"
     inkscape:document-units="px"
     inkscape:window-width="1680"
     inkscape:window-height="1000"
     inkscape:window-x="-8"
     inkscape:window-y="-8"
     inkscape:window-maximized="1">
    <inkscape:grid
       type="xygrid"
       id="grid2812"
       empspacing="12"
       visible="true"
       enabled="false"
       snapvisiblegridlinesonly="true"
       dotted="false" />
    <inkscape:grid
       type="xygrid"
       id="grid2818"
       empspacing="16"
       visible="true"
       enabled="false"
       snapvisiblegridlinesonly="true" />
    <inkscape:grid
       type="xygrid"
       id="grid2820"
       empspacing="4"
       visible="true"
       enabled="false"
       snapvisiblegridlinesonly="true" />
  </sodipodi:namedview>
  <metadata
     id="metadata2821">
    <rdf:RDF>
      <cc:Work
         rdf:about="">
        <dc:format>image/svg+xml</dc:format>
        <dc:type
           rdf:resource="http://purl.org/dc/dcmitype/StillImage" />
        <dc:title>Closed Padlock</dc:title>
        <dc:creator>
          <cc:Agent>
            <dc:title>Florian Haag</dc:title>
          </cc:Agent>
        </dc:creator>
        <dc:rights>
          <cc:Agent>
            <dc:title>Florian Haag</dc:title>
          </cc:Agent>
        </dc:rights>
        <cc:license
           rdf:resource="http://creativecommons.org/licenses/MIT/ " />
        <dc:identifier>http://toolbaricons.sourceforge.net/icons/Modern3D/objects/padlock_closed</dc:identifier>
        <dc:subject>
          <rdf:Bag />
        </dc:subject>
        <dc:date>2010-02-08</dc:date>
        <dc:publisher>
          <cc:Agent>
            <dc:title>Florian Haag</dc:title>
          </cc:Agent>
        </dc:publisher>
      </cc:Work>
    </rdf:RDF>
  </metadata>
  <g
     id="layer1"
     inkscape:label="Layer 1"
     inkscape:groupmode="layer">
    <g
       id="g3753"
       transform="translate(-8,0.99732074)">
      <path
         style="fill:#000000;fill-opacity:1;stroke:none;filter:url(#filter3773)"
         d="m 33.495536,6.0741079 c -5.368068,0 -8.589439,3.066438 -9.96875,5.9375001 -1.379311,2.871062 -1.3125,5.65625 -1.3125,5.65625 l 0,6.96875 -1.9375,0 0,18.28125 26.15625,0 0,-18.28125 -1.65625,0 0,-6.9375 c 0,0 -1.1e-5,-0.03083 0,-0.03125 0.0012,-0.0483 0.07812,-2.804552 -1.28125,-5.65625 -1.37134,-2.8768091 -4.601369,-5.9375001 -10,-5.9375001 z m 0,4.0000001 c 4.047631,0 5.465048,1.747345 6.375,3.65625 0.909952,1.908905 0.90625,3.875 0.90625,3.875 l 0,0.03125 0,0.03125 0,6.96875 -14.5625,0 0,-6.96875 0,-0.03125 c 0,0 0.01767,-1.991598 0.9375,-3.90625 0.919835,-1.914653 2.336974,-3.65625 6.34375,-3.65625 z"
         id="rect3766" />
      <path
         inkscape:transform-center-y="-0.35714286"
         inkscape:transform-center-x="-9.2857137"
         sodipodi:nodetypes="cscccccccsssccccccccccssc"
         id="rect3602"
         d="m 32.000001,4.0625 c -5.368068,0 -8.589439,3.066438 -9.96875,5.9375 -1.379311,2.871062 -1.3125,5.65625 -1.3125,5.65625 l 0,18.90625 0,2 4,0 0,-2 0,-18.90625 0,-0.03125 c 0,0 0.01767,-1.991598 0.9375,-3.90625 0.919835,-1.914653 2.336974,-3.65625 6.34375,-3.65625 4.047631,0 5.465048,1.747345 6.375,3.65625 0.909952,1.908905 0.90625,3.875 0.90625,3.875 l 0,0.03125 0,0.03125 0,9.191964 1,-0.75 0.5,0.616072 0.5,-0.258929 1,0.892857 1,-1.142857 0,-8.517857 c 0,0 -1.1e-5,-0.03083 0,-0.03125 0.0012,-0.0483 0.07812,-2.804552 -1.28125,-5.65625 -1.37134,-2.876809 -4.601369,-5.9375 -10,-5.9375 z"
         style="font-size:medium;font-style:normal;font-variant:normal;font-weight:normal;font-stretch:normal;text-indent:0;text-align:start;text-decoration:none;line-height:normal;letter-spacing:normal;word-spacing:normal;text-transform:none;direction:ltr;block-progression:tb;writing-mode:lr-tb;text-anchor:start;color:#000000;fill:url(#radialGradient3758);fill-opacity:1;stroke:none;stroke-width:0.30000001;marker:none;visibility:visible;display:inline;overflow:visible;enable-background:accumulate;font-family:Bitstream Vera Sans;-inkscape-font-specification:Bitstream Vera Sans" />
      <rect
         y="23.357143"
         x="18.928572"
         height="18.285715"
         width="26.142857"
         id="rect3600"
         style="fill:url(#linearGradient3760);fill-opacity:1;stroke:url(#linearGradient3762);stroke-width:0.60000002;stroke-linecap:round;stroke-linejoin:miter;stroke-miterlimit:4;stroke-opacity:1;stroke-dasharray:none;stroke-dashoffset:0" />
      <path
         id="path3639"
         d="m 32,28.25 c -1.394729,0 -2.53125,1.13652 -2.53125,2.53125 0,0.896611 0.483205,1.67688 1.1875,2.125 L 30.25,37.75 l 3.5,0 -0.40625,-4.84375 c 0.704295,-0.44812 1.1875,-1.228388 1.1875,-2.125 C 34.53125,29.38652 33.39473,28.25 32,28.25 z"
         style="fill:url(#linearGradient3764);fill-opacity:1;stroke:#000000;stroke-width:0.30000001;stroke-linecap:square;stroke-linejoin:miter;stroke-miterlimit:4;stroke-opacity:1;stroke-dashoffset:0" />
    </g>
  </g>
</svg>
