<?xml version="1.0" encoding="UTF-8" standalone="no"?>
<!-- Created with Inkscape (http://www.inkscape.org/) -->

<svg
   xmlns:dc="http://purl.org/dc/elements/1.1/"
   xmlns:cc="http://creativecommons.org/ns#"
   xmlns:rdf="http://www.w3.org/1999/02/22-rdf-syntax-ns#"
   xmlns:svg="http://www.w3.org/2000/svg"
   xmlns="http://www.w3.org/2000/svg"
   xmlns:xlink="http://www.w3.org/1999/xlink"
   xmlns:sodipodi="http://sodipodi.sourceforge.net/DTD/sodipodi-0.dtd"
   xmlns:inkscape="http://www.inkscape.org/namespaces/inkscape"
   width="48px"
   height="48px"
   id="svg2816"
   version="1.1"
   inkscape:version="0.47 r22583"
   sodipodi:docname="envelope_front.svg">
  <title
     id="title3673">Envelope</title>
  <defs
     id="defs2818">
    <linearGradient
       inkscape:collect="always"
       id="linearGradient3677">
      <stop
         style="stop-color:#ff0101;stop-opacity:1"
         offset="0"
         id="stop3679" />
      <stop
         style="stop-color:#4444ff;stop-opacity:1"
         offset="1"
         id="stop3681" />
    </linearGradient>
    <linearGradient
       inkscape:collect="always"
       id="linearGradient3615">
      <stop
         style="stop-color:#415d5d;stop-opacity:1"
         offset="0"
         id="stop3617" />
      <stop
         style="stop-color:#77a1a1;stop-opacity:1"
         offset="1"
         id="stop3619" />
    </linearGradient>
    <linearGradient
       inkscape:collect="always"
       id="linearGradient3599">
      <stop
         style="stop-color:#c4ebeb;stop-opacity:1"
         offset="0"
         id="stop3601" />
      <stop
         style="stop-color:#f0fafa;stop-opacity:1"
         offset="1"
         id="stop3603" />
    </linearGradient>
    <inkscape:perspective
       sodipodi:type="inkscape:persp3d"
       inkscape:vp_x="0 : 24 : 1"
       inkscape:vp_y="0 : 1000 : 0"
       inkscape:vp_z="48 : 24 : 1"
       inkscape:persp3d-origin="24 : 16 : 1"
       id="perspective10" />
    <linearGradient
       inkscape:collect="always"
       xlink:href="#linearGradient3599"
       id="linearGradient3653"
       gradientUnits="userSpaceOnUse"
       x1="4.2142859"
       y1="28.107141"
       x2="46.285713"
       y2="28.67857" />
    <linearGradient
       inkscape:collect="always"
       xlink:href="#linearGradient3615"
       id="linearGradient3655"
       gradientUnits="userSpaceOnUse"
       x1="4.2142859"
       y1="17.964285"
       x2="46.285713"
       y2="24.035713" />
    <filter
       inkscape:collect="always"
       id="filter3669">
      <feGaussianBlur
         inkscape:collect="always"
         stdDeviation="0.78357854"
         id="feGaussianBlur3671" />
    </filter>
    <linearGradient
       inkscape:collect="always"
       xlink:href="#linearGradient3677"
       id="linearGradient3683"
       x1="36.67857"
       y1="10.485714"
       x2="36.67857"
       y2="17.585714"
       gradientUnits="userSpaceOnUse" />
  </defs>
  <sodipodi:namedview
     id="base"
     pagecolor="#ffffff"
     bordercolor="#666666"
     borderopacity="1.0"
     inkscape:pageopacity="0.0"
     inkscape:pageshadow="2"
     inkscape:zoom="9.8994949"
     inkscape:cx="37.061418"
     inkscape:cy="23.878816"
     inkscape:current-layer="g3647"
     showgrid="true"
     inkscape:grid-bbox="true"
     inkscape:document-units="px"
     inkscape:window-width="1680"
     inkscape:window-height="1000"
     inkscape:window-x="-8"
     inkscape:window-y="-8"
     inkscape:window-maximized="1">
    <inkscape:grid
       type="xygrid"
       id="grid2812"
       empspacing="12"
       visible="true"
       enabled="false"
       snapvisiblegridlinesonly="true"
       dotted="false" />
    <inkscape:grid
       type="xygrid"
       id="grid2818"
       empspacing="16"
       visible="true"
       enabled="false"
       snapvisiblegridlinesonly="true" />
    <inkscape:grid
       type="xygrid"
       id="grid2820"
       empspacing="4"
       visible="true"
       enabled="false"
       snapvisiblegridlinesonly="true" />
  </sodipodi:namedview>
  <metadata
     id="metadata2821">
    <rdf:RDF>
      <cc:Work
         rdf:about="">
        <dc:format>image/svg+xml</dc:format>
        <dc:type
           rdf:resource="http://purl.org/dc/dcmitype/StillImage" />
        <dc:title>Envelope</dc:title>
        <dc:creator>
          <cc:Agent>
            <dc:title>Florian Haag</dc:title>
          </cc:Agent>
        </dc:creator>
        <dc:rights>
          <cc:Agent>
            <dc:title>Florian Haag</dc:title>
          </cc:Agent>
        </dc:rights>
        <cc:license
           rdf:resource="http://creativecommons.org/licenses/MIT/ " />
        <dc:identifier>http://toolbaricons.sourceforge.net/icons/Modern3D/office/envelope_front</dc:identifier>
        <dc:subject>
          <rdf:Bag />
        </dc:subject>
        <dc:date>2010-02-06</dc:date>
        <dc:publisher>
          <cc:Agent>
            <dc:title>Florian Haag</dc:title>
          </cc:Agent>
        </dc:publisher>
      </cc:Work>
    </rdf:RDF>
  </metadata>
  <g
     id="layer1"
     inkscape:label="Layer 1"
     inkscape:groupmode="layer">
    <path
       id="path3641"
       d="M 6.6428567,13.142857 5.4285717,35.714286 43.642857,42 46.5,10.5 6.6428567,13.142857 z"
       style="fill:#0e0e0e;fill-opacity:1;stroke:none;filter:url(#filter3669)" />
    <g
       id="g3647"
       transform="translate(-2,0)">
      <path
         id="path2825"
         d="M 5.9285714,10.928571 4.7142857,33.5 42.928571,39.785714 45.785714,8.2857143 5.9285714,10.928571 z"
         style="fill:url(#linearGradient3653);fill-opacity:1;stroke:url(#linearGradient3655);stroke-width:1px;stroke-linecap:butt;stroke-linejoin:miter;stroke-opacity:1" />
      <path
         style="fill:url(#linearGradient3683);stroke:#ffffff;stroke-width:0.6;stroke-linecap:butt;stroke-linejoin:miter;stroke-opacity:1;stroke-miterlimit:4;stroke-dasharray:0.6,0.6;stroke-dashoffset:0;fill-opacity:1"
         d="m 34.571429,11.071429 4.571428,-0.285715 -0.714286,6.5 -4.214285,-0.428571 0.357143,-5.785714 z"
         id="path3675"
         transform="translate(2,0)" />
      <g
         transform="matrix(0.04659982,0.00114176,-0.0121893,0.04630117,38.392097,15.672312)"
         style="font-size:40px;font-style:normal;font-weight:normal;fill:#dbdbdb;fill-opacity:1;stroke:none;font-family:Bitstream Vera Sans"
         id="text3685">
        <path
           d="m 7.5011163,17.928572 0,-6.855469 -12.421875,0 0,-3.2226563 13.0664062,-18.5546877 2.8710935,0 0,18.5546877 3.867188,0 0,3.2226563 -3.867188,0 0,6.855469 z m 0,-10.0781253 0,-12.9101562 -8.9648438,12.9101562 z"
           id="path3690"
           style="fill:#dbdbdb;fill-opacity:1" />
        <path
           d="m 36.973773,14.549665 0,3.378907 -18.925782,0 c -0.02604,-0.846354 0.110676,-1.660155 0.410157,-2.441407 0.481768,-1.289058 1.253252,-2.558588 2.314453,-3.808593 1.061193,-1.249993 2.594394,-2.6953039 4.599609,-4.3359378 3.111968,-2.5520702 5.21483,-4.5735525 6.308594,-6.0644531 1.093734,-1.4908673 1.640608,-2.9003711 1.640625,-4.2285156 -1.7e-5,-1.3932069 -0.498063,-2.568336 -1.494141,-3.5253907 -0.996108,-0.9570059 -2.294934,-1.435521 -3.896484,-1.4355468 -1.692718,2.58e-5 -3.046883,0.5078378 -4.0625,1.5234375 -1.015631,1.0156483 -1.529954,2.4218968 -1.542969,4.21875 l -3.613281,-0.3710938 c 0.247393,-2.6952893 1.178382,-4.7493237 2.792969,-6.1621094 1.614577,-1.4127323 3.782543,-2.1191123 6.503906,-2.1191403 2.747382,2.8e-5 4.921859,0.761746 6.523437,2.285156 1.601543,1.5234624 2.402324,3.4114813 2.402344,5.6640625 -2e-5,1.1458529 -0.234395,2.2721539 -0.703125,3.3789062 -0.468769,1.1067871 -1.246763,2.2721506 -2.333984,3.4960938 -1.087256,1.223971 -2.893895,2.9036568 -5.419922,5.0390625 -2.109385,1.77084 -3.46355,2.972011 -4.0625,3.603516 -0.598966,0.631515 -1.093757,1.26628 -1.484375,1.904296 z"
           id="path3692"
           style="fill:#dbdbdb;fill-opacity:1" />
      </g>
      <path
         sodipodi:type="arc"
         style="fill:#ffff19;fill-opacity:1;stroke:none"
         id="path3694"
         sodipodi:cx="36.188713"
         sodipodi:cy="13.490664"
         sodipodi:rx="0.69447988"
         sodipodi:ry="0.69447988"
         d="m 36.883193,13.490664 a 0.69447988,0.69447988 0 1 1 -1.38896,0 0.69447988,0.69447988 0 1 1 1.38896,0 z"
         transform="matrix(0.54545455,0,0,0.54545455,17.704427,6.3341502)" />
      <path
         transform="matrix(0.4909091,0,0,0.4909091,20.170807,6.4007785)"
         d="m 36.883193,13.490664 a 0.69447988,0.69447988 0 1 1 -1.38896,0 0.69447988,0.69447988 0 1 1 1.38896,0 z"
         sodipodi:ry="0.69447988"
         sodipodi:rx="0.69447988"
         sodipodi:cy="13.490664"
         sodipodi:cx="36.188713"
         id="path3696"
         style="fill:#ffff19;fill-opacity:1;stroke:none"
         sodipodi:type="arc" />
      <path
         sodipodi:type="arc"
         style="fill:#ffff19;fill-opacity:1;stroke:none"
         id="path3698"
         sodipodi:cx="36.188713"
         sodipodi:cy="13.490664"
         sodipodi:rx="0.69447988"
         sodipodi:ry="0.69447988"
         d="m 36.883193,13.490664 a 0.69447988,0.69447988 0 1 1 -1.38896,0 0.69447988,0.69447988 0 1 1 1.38896,0 z"
         transform="matrix(0.3909091,0,0,0.3909091,24.439964,7.4531125)" />
      <path
         transform="matrix(0.32727274,0,0,0.32727274,27.330033,8.4315649)"
         d="m 36.883193,13.490664 a 0.69447988,0.69447988 0 1 1 -1.38896,0 0.69447988,0.69447988 0 1 1 1.38896,0 z"
         sodipodi:ry="0.69447988"
         sodipodi:rx="0.69447988"
         sodipodi:cy="13.490664"
         sodipodi:cx="36.188713"
         id="path3700"
         style="fill:#ffff19;fill-opacity:1;stroke:none"
         sodipodi:type="arc" />
      <path
         sodipodi:type="arc"
         style="fill:#ffff19;fill-opacity:1;stroke:none"
         id="path3702"
         sodipodi:cx="36.188713"
         sodipodi:cy="13.490664"
         sodipodi:rx="0.69447988"
         sodipodi:ry="0.69447988"
         d="m 36.883193,13.490664 a 0.69447988,0.69447988 0 1 1 -1.38896,0 0.69447988,0.69447988 0 1 1 1.38896,0 z"
         transform="matrix(0.27272729,0,0,0.27272729,29.569128,9.5967341)" />
      <path
         transform="matrix(0.21818184,0,0,0.21818184,31.404162,10.686142)"
         d="m 36.883193,13.490664 a 0.69447988,0.69447988 0 1 1 -1.38896,0 0.69447988,0.69447988 0 1 1 1.38896,0 z"
         sodipodi:ry="0.69447988"
         sodipodi:rx="0.69447988"
         sodipodi:cy="13.490664"
         sodipodi:cx="36.188713"
         id="path3704"
         style="fill:#ffff19;fill-opacity:1;stroke:none"
         sodipodi:type="arc" />
      <text
         xml:space="preserve"
         style="font-size:1.17038047px;font-style:normal;font-weight:normal;fill:#0d00a5;fill-opacity:1;stroke:none;font-family:Bitstream Vera Sans"
         x="7.2545805"
         y="14.652838"
         id="text3706"
         transform="matrix(1,-0.02253858,0,1,0,0)"><tspan
           sodipodi:role="line"
           id="tspan3708"
           x="7.2545805"
           y="14.652838">Samantha Sender</tspan><tspan
           sodipodi:role="line"
           x="7.2545805"
           y="16.115812"
           id="tspan3710">1 Originating Street</tspan><tspan
           sodipodi:role="line"
           x="7.2545805"
           y="17.578789"
           id="tspan3712">12345 Begintown</tspan></text>
      <text
         xml:space="preserve"
         style="font-size:1.66476619px;font-style:normal;font-weight:normal;fill:#0d00a5;fill-opacity:1;stroke:none;font-family:Bitstream Vera Sans"
         x="25.27894"
         y="25.6416"
         id="text3714"
         transform="matrix(1,0.07054884,0,1,0,0)"><tspan
           sodipodi:role="line"
           id="tspan3716"
           x="25.27894"
           y="25.6416">Richard Recipient</tspan><tspan
           sodipodi:role="line"
           x="25.27894"
           y="27.722559"
           id="tspan3718">2 Destination Avenue</tspan><tspan
           sodipodi:role="line"
           x="25.27894"
           y="29.803514"
           id="tspan3720">98765 End City</tspan></text>
    </g>
  </g>
</svg>
