<?xml version="1.0" encoding="UTF-8" standalone="no"?>
<!-- Created with Inkscape (http://www.inkscape.org/) -->

<svg
   xmlns:dc="http://purl.org/dc/elements/1.1/"
   xmlns:cc="http://creativecommons.org/ns#"
   xmlns:rdf="http://www.w3.org/1999/02/22-rdf-syntax-ns#"
   xmlns:svg="http://www.w3.org/2000/svg"
   xmlns="http://www.w3.org/2000/svg"
   xmlns:xlink="http://www.w3.org/1999/xlink"
   xmlns:sodipodi="http://sodipodi.sourceforge.net/DTD/sodipodi-0.dtd"
   xmlns:inkscape="http://www.inkscape.org/namespaces/inkscape"
   width="48px"
   height="48px"
   id="svg2816"
   version="1.1"
   inkscape:version="0.47 r22583"
   sodipodi:docname="disperse.svg">
  <title
     id="title4773">Disperse</title>
  <sodipodi:namedview
     id="base"
     pagecolor="#ffffff"
     bordercolor="#666666"
     borderopacity="1.0"
     inkscape:pageopacity="0.0"
     inkscape:pageshadow="2"
     inkscape:zoom="9.8994949"
     inkscape:cx="24.015715"
     inkscape:cy="16.475794"
     inkscape:current-layer="layer1"
     showgrid="true"
     inkscape:grid-bbox="true"
     inkscape:document-units="px"
     inkscape:window-width="1680"
     inkscape:window-height="1000"
     inkscape:window-x="-8"
     inkscape:window-y="-8"
     inkscape:window-maximized="1"
     inkscape:snap-global="false">
    <inkscape:grid
       dotted="false"
       snapvisiblegridlinesonly="true"
       enabled="false"
       visible="true"
       empspacing="12"
       id="grid2812"
       type="xygrid" />
    <inkscape:grid
       snapvisiblegridlinesonly="true"
       enabled="false"
       visible="true"
       empspacing="16"
       id="grid2818"
       type="xygrid" />
    <inkscape:grid
       snapvisiblegridlinesonly="true"
       enabled="false"
       visible="true"
       empspacing="4"
       id="grid2820"
       type="xygrid" />
  </sodipodi:namedview>
  <defs
     id="defs2818">
    <linearGradient
       id="linearGradient4763">
      <stop
         style="stop-color:#fcf500;stop-opacity:1"
         offset="0"
         id="stop4765" />
      <stop
         id="stop4771"
         offset="0.5"
         style="stop-color:#fcc100;stop-opacity:1" />
      <stop
         style="stop-color:#fcc100;stop-opacity:0"
         offset="1"
         id="stop4767" />
    </linearGradient>
    <marker
       style="overflow:visible;"
       id="Arrow1Mend"
       refX="0.0"
       refY="0.0"
       orient="auto"
       inkscape:stockid="Arrow1Mend">
      <path
         transform="scale(0.4) rotate(180) translate(10,0)"
         style="fill-rule:evenodd;stroke:#000000;stroke-width:1.0pt;marker-start:none;"
         d="M 0.0,0.0 L 5.0,-5.0 L -12.5,0.0 L 5.0,5.0 L 0.0,0.0 z "
         id="path3759" />
    </marker>
    <marker
       style="overflow:visible;"
       id="Arrow1Send"
       refX="0.0"
       refY="0.0"
       orient="auto"
       inkscape:stockid="Arrow1Send">
      <path
         transform="scale(0.2) rotate(180) translate(6,0)"
         style="fill-rule:evenodd;stroke:#000000;stroke-width:1.0pt;marker-start:none;"
         d="M 0.0,0.0 L 5.0,-5.0 L -12.5,0.0 L 5.0,5.0 L 0.0,0.0 z "
         id="path3765" />
    </marker>
    <linearGradient
       inkscape:collect="always"
       id="linearGradient3739">
      <stop
         style="stop-color:#8d4526;stop-opacity:1"
         offset="0"
         id="stop3741" />
      <stop
         style="stop-color:#e6b6a2;stop-opacity:1"
         offset="1"
         id="stop3743" />
    </linearGradient>
    <linearGradient
       inkscape:collect="always"
       id="linearGradient3733">
      <stop
         style="stop-color:#8d4526;stop-opacity:1"
         offset="0"
         id="stop3735" />
      <stop
         style="stop-color:#e6b6a2;stop-opacity:1"
         offset="1"
         id="stop3737" />
    </linearGradient>
    <linearGradient
       inkscape:collect="always"
       id="linearGradient3727">
      <stop
         style="stop-color:#8d4526;stop-opacity:1"
         offset="0"
         id="stop3729" />
      <stop
         style="stop-color:#e6b6a2;stop-opacity:1"
         offset="1"
         id="stop3731" />
    </linearGradient>
    <linearGradient
       inkscape:collect="always"
       id="linearGradient3721">
      <stop
         style="stop-color:#8d4526;stop-opacity:1"
         offset="0"
         id="stop3723" />
      <stop
         style="stop-color:#e6b6a2;stop-opacity:1"
         offset="1"
         id="stop3725" />
    </linearGradient>
    <linearGradient
       inkscape:collect="always"
       id="linearGradient3695">
      <stop
         style="stop-color:#00fc94;stop-opacity:0.86274511"
         offset="0"
         id="stop3697" />
      <stop
         style="stop-color:#b0c834;stop-opacity:0"
         offset="1"
         id="stop3699" />
    </linearGradient>
    <linearGradient
       inkscape:collect="always"
       id="linearGradient3689">
      <stop
         style="stop-color:#00fc94;stop-opacity:0.86274511"
         offset="0"
         id="stop3691" />
      <stop
         style="stop-color:#b0c834;stop-opacity:0"
         offset="1"
         id="stop3693" />
    </linearGradient>
    <linearGradient
       inkscape:collect="always"
       id="linearGradient3683">
      <stop
         style="stop-color:#00fc94;stop-opacity:0.86274511"
         offset="0"
         id="stop3685" />
      <stop
         style="stop-color:#b0c834;stop-opacity:0"
         offset="1"
         id="stop3687" />
    </linearGradient>
    <linearGradient
       inkscape:collect="always"
       id="linearGradient3677">
      <stop
         style="stop-color:#00fc94;stop-opacity:0.86274511"
         offset="0"
         id="stop3679" />
      <stop
         style="stop-color:#b0c834;stop-opacity:0"
         offset="1"
         id="stop3681" />
    </linearGradient>
    <linearGradient
       id="linearGradient3661"
       inkscape:collect="always">
      <stop
         id="stop3663"
         offset="0"
         style="stop-color:#00fc94;stop-opacity:0.86274511" />
      <stop
         id="stop3665"
         offset="1"
         style="stop-color:#b0c834;stop-opacity:0" />
    </linearGradient>
    <linearGradient
       id="linearGradient3609"
       inkscape:collect="always">
      <stop
         id="stop3611"
         offset="0"
         style="stop-color:#8d4526;stop-opacity:1" />
      <stop
         id="stop3613"
         offset="1"
         style="stop-color:#e6b6a2;stop-opacity:1" />
    </linearGradient>
    <inkscape:perspective
       id="perspective10"
       inkscape:persp3d-origin="24 : 16 : 1"
       inkscape:vp_z="48 : 24 : 1"
       inkscape:vp_y="0 : 1000 : 0"
       inkscape:vp_x="0 : 24 : 1"
       sodipodi:type="inkscape:persp3d" />
    <linearGradient
       gradientUnits="userSpaceOnUse"
       y2="6.6428571"
       x2="11.964286"
       y1="8.7142859"
       x1="11.964286"
       id="linearGradient3615"
       xlink:href="#linearGradient3721"
       inkscape:collect="always" />
    <filter
       height="1.3431321"
       y="-0.17156605"
       width="1.0555912"
       x="-0.027795616"
       id="filter3617"
       inkscape:collect="always">
      <feGaussianBlur
         id="feGaussianBlur3619"
         stdDeviation="0.14807783"
         inkscape:collect="always" />
    </filter>
    <linearGradient
       y2="6.6428571"
       x2="11.964286"
       y1="8.7142859"
       x1="11.964286"
       gradientUnits="userSpaceOnUse"
       id="linearGradient3623"
       xlink:href="#linearGradient3609"
       inkscape:collect="always" />
    <linearGradient
       y2="6.6428571"
       x2="11.964286"
       y1="8.7142859"
       x1="11.964286"
       gradientUnits="userSpaceOnUse"
       id="linearGradient3627"
       xlink:href="#linearGradient3739"
       inkscape:collect="always" />
    <linearGradient
       y2="6.6428571"
       x2="11.964286"
       y1="8.7142859"
       x1="11.964286"
       gradientUnits="userSpaceOnUse"
       id="linearGradient3631"
       xlink:href="#linearGradient3733"
       inkscape:collect="always" />
    <linearGradient
       y2="6.6428571"
       x2="11.964286"
       y1="8.7142859"
       x1="11.964286"
       gradientUnits="userSpaceOnUse"
       id="linearGradient3635"
       xlink:href="#linearGradient3727"
       inkscape:collect="always" />
    <filter
       id="filter3639"
       inkscape:collect="always">
      <feGaussianBlur
         id="feGaussianBlur3641"
         stdDeviation="0.22234917"
         inkscape:collect="always" />
    </filter>
    <linearGradient
       gradientUnits="userSpaceOnUse"
       y2="26.746334"
       x2="24.033175"
       y1="41.595577"
       x1="14.351706"
       id="linearGradient3667"
       xlink:href="#linearGradient3683"
       inkscape:collect="always" />
    <linearGradient
       gradientUnits="userSpaceOnUse"
       y2="25.428572"
       x2="22.071428"
       y1="19.642857"
       x1="2.5714286"
       id="linearGradient3669"
       xlink:href="#linearGradient3689"
       inkscape:collect="always" />
    <linearGradient
       gradientUnits="userSpaceOnUse"
       y2="23.605221"
       x2="24.538252"
       y1="6.5"
       x1="22.071428"
       id="linearGradient3671"
       xlink:href="#linearGradient3661"
       inkscape:collect="always" />
    <linearGradient
       gradientUnits="userSpaceOnUse"
       y2="24.564865"
       x2="26.324583"
       y1="13.714286"
       x1="39.586552"
       id="linearGradient3673"
       xlink:href="#linearGradient3695"
       inkscape:collect="always" />
    <linearGradient
       gradientUnits="userSpaceOnUse"
       y2="26.121244"
       x2="26.183064"
       y1="34.101448"
       x1="39.081474"
       id="linearGradient3675"
       xlink:href="#linearGradient3677"
       inkscape:collect="always" />
    <filter
       id="filter3701"
       inkscape:collect="always">
      <feGaussianBlur
         id="feGaussianBlur3703"
         stdDeviation="0.40928571"
         inkscape:collect="always" />
    </filter>
    <filter
       id="filter3705"
       inkscape:collect="always">
      <feGaussianBlur
         id="feGaussianBlur3707"
         stdDeviation="0.40928571"
         inkscape:collect="always" />
    </filter>
    <filter
       id="filter3709"
       inkscape:collect="always">
      <feGaussianBlur
         id="feGaussianBlur3711"
         stdDeviation="0.40928571"
         inkscape:collect="always" />
    </filter>
    <filter
       id="filter3713"
       inkscape:collect="always">
      <feGaussianBlur
         id="feGaussianBlur3715"
         stdDeviation="0.40928571"
         inkscape:collect="always" />
    </filter>
    <filter
       id="filter3717"
       inkscape:collect="always">
      <feGaussianBlur
         id="feGaussianBlur3719"
         stdDeviation="0.40928571"
         inkscape:collect="always" />
    </filter>
    <marker
       style="overflow:visible;"
       id="Arrow1Mendi"
       refX="0.0"
       refY="0.0"
       orient="auto"
       inkscape:stockid="Arrow1Mendi">
      <path
         transform="scale(0.4) rotate(180) translate(10,0)"
         style="marker-start:none;stroke:#c21515;stroke-width:1.0pt;fill:#c21515;fill-rule:evenodd"
         d="M 0.0,0.0 L 5.0,-5.0 L -12.5,0.0 L 5.0,5.0 L 0.0,0.0 z "
         id="path4629" />
    </marker>
    <linearGradient
       inkscape:collect="always"
       xlink:href="#linearGradient3689"
       id="linearGradient4757"
       gradientUnits="userSpaceOnUse"
       x1="2.5714286"
       y1="19.642857"
       x2="22.778536"
       y2="19.973747"
       gradientTransform="translate(0.80812204,4.1416254)" />
    <linearGradient
       inkscape:collect="always"
       xlink:href="#linearGradient3721"
       id="linearGradient4759"
       gradientUnits="userSpaceOnUse"
       x1="11.964286"
       y1="8.7142859"
       x2="11.964286"
       y2="6.6428571" />
    <radialGradient
       inkscape:collect="always"
       xlink:href="#linearGradient4763"
       id="radialGradient4769"
       cx="24.647722"
       cy="24.1604"
       fx="24.647722"
       fy="24.1604"
       r="5.9598999"
       gradientUnits="userSpaceOnUse" />
    <linearGradient
       inkscape:collect="always"
       xlink:href="#linearGradient3733"
       id="linearGradient4790"
       gradientUnits="userSpaceOnUse"
       x1="11.964286"
       y1="8.7142859"
       x2="11.964286"
       y2="6.6428571" />
  </defs>
  <metadata
     id="metadata2821">
    <rdf:RDF>
      <cc:Work
         rdf:about="">
        <dc:format>image/svg+xml</dc:format>
        <dc:type
           rdf:resource="http://purl.org/dc/dcmitype/StillImage" />
        <dc:title>Disperse</dc:title>
        <dc:creator>
          <cc:Agent>
            <dc:title>Florian Haag</dc:title>
          </cc:Agent>
        </dc:creator>
        <dc:rights>
          <cc:Agent>
            <dc:title>Florian Haag</dc:title>
          </cc:Agent>
        </dc:rights>
        <cc:license
           rdf:resource="http://creativecommons.org/licenses/MIT/ " />
        <dc:identifier>http://toolbaricons.sourceforge.net/icons/Modern3D/actions/disperse</dc:identifier>
        <dc:subject>
          <rdf:Bag />
        </dc:subject>
        <dc:date>2010-04-05</dc:date>
        <dc:publisher>
          <cc:Agent>
            <dc:title>Florian Haag</dc:title>
          </cc:Agent>
        </dc:publisher>
      </cc:Work>
    </rdf:RDF>
  </metadata>
  <g
     inkscape:groupmode="layer"
     inkscape:label="Layer 1"
     id="layer1">
    <path
       transform="matrix(-1.1949616,-0.3033518,0.45171877,-1.7794079,25.947706,59.937067)"
       style="opacity:0.74410771;fill:#1d1d1d;fill-opacity:1;stroke:none;filter:url(#filter3639)"
       d="M 6.78125 6.25 C 6.2896369 6.4340911 5.8239991 6.673154 5.53125 7.09375 C 5.4109609 7.2223875 5.3297642 7.34679 5.34375 7.53125 C 5.1603187 7.6163179 5.4248597 7.7312938 5.40625 7.875 C 5.6640191 8.4466951 6.2668161 8.7543062 6.84375 8.90625 C 7.5798688 9.0095765 8.3190931 9.0568312 9.0623515 9.03125 C 9.8213418 9.0240382 10.581576 9.0454978 11.339804 9.0207235 C 12.790311 8.8998936 14.245714 8.847236 15.698301 8.7553712 C 16.39309 8.7214785 17.105173 8.6702677 17.758799 8.4146691 C 18.159629 8.2497569 18.547907 7.7577561 18.21875 7.34375 C 17.879438 6.7540939 17.119194 6.7280226 16.516928 6.6650753 C 15.795017 6.5723821 15.070912 6.5024673 14.34375 6.46875 C 13.49188 6.3405594 12.6325 6.2737251 11.771397 6.2552285 C 10.744929 6.216756 9.7186178 6.1700932 8.6911372 6.1875 C 8.055373 6.2135249 7.4086427 6.1262035 6.78125 6.25 z "
       id="rect3649" />
    <path
       transform="matrix(-0.90959083,0.83222599,-1.2392611,-1.3544645,60.958584,35.326528)"
       style="opacity:0.74410771;fill:#1d1d1d;fill-opacity:1;stroke:none;filter:url(#filter3639)"
       d="M 7.03125,6.03125 C 6.6574482,6.0037373 6.4533456,6.4442755 6.078817,6.4918415 5.6141028,6.6866685 5.2105139,7.239595 5.3125,7.75 5.3946827,8.3261365 5.9990566,8.7114177 6.53125,8.84375 7.2407791,9.0049234 7.9538567,9.1545793 8.6652202,9.3083225 9.5875471,9.3721802 10.513484,9.332859 11.4375,9.34375 12.908648,9.24929 14.377179,9.1100682 15.838608,8.9175237 16.555484,8.7953028 17.306016,8.7005028 17.9375,8.3125 18.311981,8.1136501 18.488252,7.6138457 18.179373,7.2761222 17.904059,6.8769004 17.408062,6.6987665 17.007117,6.4705292 16.435735,6.2785483 15.796034,6.4017264 15.279173,6.1972243 14.692878,6.0824689 14.085605,6.0277818 13.503489,5.90625 12.307918,5.9041912 11.112291,5.8982895 9.917468,5.9481934 8.9553953,5.9758789 7.9933227,6.0035645 7.03125,6.03125 z"
       id="rect3647" />
    <rect
       style="opacity:0.74410771;fill:#1d1d1d;fill-opacity:1;stroke:none;filter:url(#filter3639)"
       id="rect3645"
       width="12.785714"
       height="2.0714285"
       x="5.5714288"
       y="6.6428571"
       rx="2"
       ry="2"
       transform="matrix(-0.39240116,1.1687502,-1.7403765,-0.58432148,58.951284,3.6859647)" />
    <rect
       transform="matrix(1.1124265,-0.53147237,0.79141125,1.6565055,3.7922751,0.12327225)"
       ry="2"
       rx="2"
       y="6.6428571"
       x="5.5714288"
       height="2.0714285"
       width="12.785714"
       id="rect3643"
       style="opacity:0.74410771;fill:#1d1d1d;fill-opacity:1;stroke:none;filter:url(#filter3639)" />
    <path
       transform="matrix(0.37465838,-1.1745581,1.7490251,0.55790083,-11.140126,33.966101)"
       style="opacity:0.74410771;fill:#1d1d1d;fill-opacity:1;stroke:none;filter:url(#filter3639)"
       d="M 9.3125 6.34375 C 8.6794691 6.4275789 8.0428489 6.320688 7.410677 6.3588216 C 6.8549585 6.4615329 6.2923004 6.6082061 5.8125 6.90625 C 5.567611 7.265089 5.2604198 7.7620011 5.5855915 8.171183 C 5.8445209 8.583706 6.3325125 8.9747663 6.78125 8.96875 C 7.3800554 9.2391852 8.0640077 9.1494608 8.7026732 9.2641178 C 9.4001235 9.3243739 10.109772 9.3769774 10.806652 9.3199197 C 11.444616 9.1604644 12.099686 9.1398265 12.75 9.0625 C 13.536199 8.8602374 14.347725 8.7883462 15.146447 8.6505467 C 15.849408 8.5513135 16.539264 8.3781752 17.25 8.34375 C 17.702784 8.2868979 18.383085 7.8885534 18.070659 7.360067 C 17.753357 6.7945977 17.000661 6.7005511 16.409975 6.7263297 C 15.744435 6.8352585 15.103102 6.6246528 14.441198 6.6178646 C 13.781556 6.5988061 13.125839 6.5223307 12.482983 6.3785584 C 11.815443 6.3767643 11.146269 6.3801072 10.479926 6.321011 C 10.091053 6.2979144 9.7005965 6.3145623 9.3125 6.34375 z "
       id="rect3637" />
    <path
       id="path3653"
       d="M 7.2366934,17.427339 3.3795506,30.141625 23.699928,24.489847 7.2366934,17.427339 z"
       style="fill:url(#linearGradient4757);fill-opacity:1;stroke:none;filter:url(#filter3705)"
       sodipodi:nodetypes="cccc" />
    <path
       transform="matrix(0.37465838,-1.1745581,1.7490251,0.55790083,-12.497269,33.251815)"
       style="fill:url(#linearGradient4759);fill-opacity:1;stroke:#00faa7;stroke-width:0.39881828;stroke-miterlimit:4;stroke-opacity:1;filter:url(#filter3617)"
       d="M 7.75 6.09375 C 7.0647947 6.1701346 6.3658936 6.3450939 5.78125 6.71875 C 5.1935897 7.1045669 5.0476803 8.1005343 5.7275144 8.4714864 C 6.2799678 8.8429192 6.9343823 9.0562433 7.59375 9.125 C 8.2580376 9.302222 8.9488329 9.1682679 9.625 9.25 C 10.361907 9.3352898 11.094248 9.1948209 11.828617 9.1536721 C 13.461244 9.064278 15.071879 8.7664401 16.6875 8.53125 C 17.166211 8.4637254 17.655127 8.2961319 18.03125 8 C 18.226693 7.5832921 17.937355 7.1644931 17.516317 7.0706585 C 17.000157 6.8312854 16.409121 6.8456833 15.850727 6.78125 C 15.28012 6.6664528 14.701094 6.625838 14.129902 6.5127733 C 13.41233 6.4181643 12.709292 6.1875219 11.979216 6.21875 C 11.266919 6.1760553 10.556298 6.0915369 9.8408841 6.094637 C 9.143436 6.0616051 8.4474945 6.0597273 7.75 6.09375 z "
       id="rect2835" />
    <path
       sodipodi:nodetypes="cccc"
       id="path3651"
       d="M 16,8.5 28.142857,3.2142857 24.642858,24.214286 16,8.5 z"
       style="fill:url(#linearGradient3671);stroke:none;stroke-width:1px;stroke-linecap:butt;stroke-linejoin:miter;stroke-opacity:1;fill-opacity:1;filter:url(#filter3709)" />
    <path
       transform="matrix(1.1258338,-0.502448,0.7481913,1.6764701,2.7494486,-1.1629984)"
       style="fill:url(#linearGradient3623);fill-opacity:1;stroke:#00faa7;stroke-width:0.39881828;stroke-miterlimit:4;stroke-opacity:1;filter:url(#filter3617)"
       d="M 12.6875 5.90625 C 12.050764 6.0137469 11.400408 5.9309608 10.763281 6.0452149 C 10.139646 6.1338813 9.5222101 6.2944631 8.8854662 6.25 C 8.3584082 6.3014741 7.7843889 6.0526957 7.3222243 6.3821752 C 6.8075565 6.5714139 6.1852678 6.565019 5.875 7.09375 C 5.5811551 7.3301022 5.6412029 7.8381513 5.9921714 7.9296714 C 6.4506399 8.35218 6.983809 8.9302058 7.6725986 8.7509313 C 8.3640982 8.6976765 9.0585964 8.710688 9.75 8.65625 C 10.433457 8.6671659 11.116174 8.6500815 11.797599 8.5946813 C 12.474595 8.5030623 13.151847 8.6815436 13.828849 8.5946813 C 14.484776 8.5149339 15.134897 8.80905 15.78125 8.65625 C 16.411828 8.471707 17.101873 9.0108325 17.663603 8.5575977 C 18.216092 8.2533504 18.441449 7.334928 17.875 6.9375 C 17.644361 6.5746424 17.196986 6.5724528 16.820092 6.5311911 C 16.292163 6.4035397 15.773955 6.1585461 15.222239 6.28125 C 14.656051 6.3078552 14.065767 6.0130333 13.5625 6.03125 C 13.269676 6.0143306 12.977652 5.7958119 12.6875 5.90625 z "
       id="rect3621" />
    <path
       id="path3657"
       d="M 42.071429,6.5 37.642857,18.285714 26,24.928571 42.071429,6.5 z"
       style="fill:url(#linearGradient3673);stroke:none;stroke-width:1px;stroke-linecap:butt;stroke-linejoin:miter;stroke-opacity:1;fill-opacity:1;filter:url(#filter3713)" />
    <path
       transform="matrix(0.45676881,-1.1451279,1.7052009,0.68017082,21.403431,20.450072)"
       style="fill:url(#linearGradient3627);fill-opacity:1;stroke:#00faa7;stroke-width:0.39881828;stroke-miterlimit:4;stroke-opacity:1;filter:url(#filter3617)"
       d="M 7.34375 6.03125 C 6.8335861 6.1218357 6.3481862 6.4063202 5.8676465 6.5986523 C 5.5253044 6.8906282 5.1371834 7.3462118 5.34375 7.84375 C 5.4197537 8.3329091 5.8692216 8.7375862 6.375 8.75 C 6.9282608 9.0977861 7.6128986 9.0661994 8.2464733 9.0594632 C 9.9542475 9.0260335 11.661064 8.9621989 13.367932 8.8996246 C 14.432788 8.8705831 15.497644 8.8415415 16.5625 8.8125 C 17.174612 8.6505337 17.887284 8.5195036 18.280579 7.9695549 C 18.446841 7.425609 18.008127 6.8750412 17.5 6.71875 C 16.78009 6.5184585 16.026808 6.4549603 15.28125 6.46875 C 14.528683 6.3614486 13.772684 6.3404477 13.014627 6.318204 C 11.375107 6.20932 9.7350817 6.1091166 8.09375 6.03125 C 7.8455191 5.9869904 7.5919689 5.9869312 7.34375 6.03125 z "
       id="rect3625" />
    <path
       id="path3659"
       d="M 44.214286,30.285714 35,39.142857 26,25.928571 44.214286,30.285714 z"
       style="fill:url(#linearGradient3675);stroke:none;stroke-width:1px;stroke-linecap:butt;stroke-linejoin:miter;stroke-opacity:1;fill-opacity:1;filter:url(#filter3717)" />
    <path
       transform="matrix(0.8914514,-0.85162791,1.2681523,1.3274532,18.871333,34.379341)"
       style="fill:url(#linearGradient4790);fill-opacity:1;stroke:#00faa7;stroke-width:0.39881828;stroke-miterlimit:4;stroke-opacity:1;filter:url(#filter3617)"
       d="m 11.71875,5.09375 c -0.587156,0.064677 -1.15293,0.3126828 -1.75,0.375 -0.6753689,0.09919 -1.3292312,0.302011 -2,0.4375 -0.5999671,0.2295266 -1.2169072,0.4468256 -1.75,0.8125 C 5.6817984,7.0773819 5.4539962,7.9214825 6,8.375 6.536921,8.7562397 7.2218138,8.8063689 7.8325246,9.0114155 8.4909012,9.2888165 9.2196013,9.3446166 9.9270338,9.34375 10.652001,9.4622742 11.374498,9.6414713 12.117484,9.6099156 12.838729,9.6301834 13.559616,9.5228759 14.28125,9.5 15.011749,9.4749689 15.731598,9.3349033 16.460775,9.2904978 16.97581,9.1552894 17.490357,8.8861211 17.90625,8.53125 c 0.514638,-0.321303 0.742996,-1.001828 0.5,-1.5625 C 18.252198,6.5572246 17.734099,6.4416829 17.455513,6.1611415 16.811395,5.7853819 16.076919,5.6317895 15.382647,5.377549 14.671564,5.2906497 13.959959,5.1942274 13.25,5.09375 c -0.513434,-0.053156 -1.069966,-0.013731 -1.53125,0 z"
       id="rect3629" />
    <path
       id="path3655"
       d="m 7.7857143,40.5 12.8571427,2.928571 3.642857,-17 L 7.7857143,40.5 z"
       style="fill:url(#linearGradient3667);stroke:none;stroke-width:1px;stroke-linecap:butt;stroke-linejoin:miter;stroke-opacity:1;fill-opacity:1;filter:url(#filter3701)" />
    <path
       transform="matrix(1.2047284,0.26188755,-0.38997471,1.7939515,2.7593045,24.861612)"
       style="fill:url(#linearGradient3635);fill-opacity:1;stroke:#00faa7;stroke-width:0.39881828;stroke-miterlimit:4;stroke-opacity:1;filter:url(#filter3617)"
       d="M 12.9375 6.125 C 12.296043 6.276976 11.625889 6.3006885 10.969654 6.3719856 C 10.187252 6.4812766 9.4043838 6.5889618 8.625 6.71875 C 7.9608108 6.7595613 7.28812 6.8312574 6.6787009 7.1165809 C 6.4605703 7.2443744 6.1804931 7.3728868 6.03125 7.5625 C 6.0308229 7.7622749 6.3015621 7.7797893 6.3671714 7.9609214 C 6.8109054 8.3833153 7.4645812 8.2014074 7.9857665 8.4339416 C 8.6353676 8.6362292 9.3185503 8.6193157 9.9873043 8.696506 C 11.070667 8.8172514 12.155027 8.9400283 13.242843 9.0093401 C 14.14859 9.0537455 15.054816 9.0732918 15.961624 9.0625 C 16.589631 9.0633449 17.254651 8.9477367 17.78125 8.59375 C 18.058357 8.3084141 18.550319 8.0421976 18.5 7.59375 C 18.266357 7.033148 17.773168 6.5202262 17.133164 6.4041183 C 16.488487 6.1606307 15.760005 6.295193 15.084105 6.1477624 C 14.37018 6.0570782 13.648458 5.9497518 12.9375 6.125 z "
       id="rect3633" />
    <path
       sodipodi:nodetypes="cc"
       id="path3745"
       d="M 24.836838,24.155983 C 25.353299,16.630602 34.254025,8.1960834 38.71008,3.2970986"
       style="fill:none;stroke:#c21515;stroke-width:1.50000000000000000;stroke-linecap:butt;stroke-linejoin:miter;stroke-miterlimit:4;stroke-opacity:1;stroke-dasharray:none;marker-end:url(#Arrow1Mendi);opacity:0.7" />
    <path
       style="fill:none;stroke:#c21515;stroke-width:1.50000000000000000;stroke-linecap:butt;stroke-linejoin:miter;stroke-miterlimit:4;stroke-opacity:1;stroke-dasharray:none;marker-end:url(#Arrow1Mendi);opacity:0.7"
       d="m 24.735823,24.459029 c -2.918058,15.304067 0.83089,14.849753 10.438723,20.153308"
       id="path4751"
       sodipodi:nodetypes="cc" />
    <path
       sodipodi:nodetypes="cc"
       id="path4753"
       d="M 24.230747,24.459029 C 15.453804,13.701161 9.6063032,9.7113122 3.0516957,4.6102967"
       style="fill:none;stroke:#c21515;stroke-width:1.50000000000000000;stroke-linecap:butt;stroke-linejoin:miter;stroke-miterlimit:4;stroke-opacity:1;stroke-dasharray:none;marker-end:url(#Arrow1Mendi);opacity:0.7" />
    <path
       sodipodi:type="arc"
       style="fill:url(#radialGradient4769);fill-opacity:1;stroke:none"
       id="path4761"
       sodipodi:cx="24.647722"
       sodipodi:cy="24.1604"
       sodipodi:rx="5.9598999"
       sodipodi:ry="5.9598999"
       d="m 30.607622,24.1604 a 5.9598999,5.9598999 0 1 1 -11.9198,0 5.9598999,5.9598999 0 1 1 11.9198,0 z"
       transform="matrix(1.1694915,0,0,1.1694915,-4.1775801,-4.0949832)" />
  </g>
</svg>
