<?xml version="1.0" encoding="UTF-8" standalone="no"?>
<!-- Created with Inkscape (http://www.inkscape.org/) -->

<svg
   xmlns:dc="http://purl.org/dc/elements/1.1/"
   xmlns:cc="http://creativecommons.org/ns#"
   xmlns:rdf="http://www.w3.org/1999/02/22-rdf-syntax-ns#"
   xmlns:svg="http://www.w3.org/2000/svg"
   xmlns="http://www.w3.org/2000/svg"
   xmlns:xlink="http://www.w3.org/1999/xlink"
   xmlns:sodipodi="http://sodipodi.sourceforge.net/DTD/sodipodi-0.dtd"
   xmlns:inkscape="http://www.inkscape.org/namespaces/inkscape"
   width="48px"
   height="48px"
   id="svg2816"
   version="1.1"
   inkscape:version="0.47 r22583"
   sodipodi:docname="redo_green.svg">
  <title
     id="title2853">Repeat</title>
  <defs
     id="defs2818">
    <linearGradient
       inkscape:collect="always"
       id="linearGradient4628">
      <stop
         style="stop-color:#3fb100;stop-opacity:1"
         offset="0"
         id="stop4630" />
      <stop
         style="stop-color:#91ff54;stop-opacity:1"
         offset="1"
         id="stop4632" />
    </linearGradient>
    <linearGradient
       inkscape:collect="always"
       id="linearGradient4620">
      <stop
         style="stop-color:#1d5200;stop-opacity:1"
         offset="0"
         id="stop4622" />
      <stop
         style="stop-color:#4ad300;stop-opacity:1"
         offset="1"
         id="stop4624" />
    </linearGradient>
    <linearGradient
       inkscape:collect="always"
       xlink:href="#linearGradient4620"
       id="linearGradient4626"
       x1="39.30357"
       y1="45.5625"
       x2="3.8325534"
       y2="4.0245538"
       gradientUnits="userSpaceOnUse"
       gradientTransform="matrix(0.51460581,0,0,0.51457705,1.963081,12.25291)" />
    <linearGradient
       inkscape:collect="always"
       xlink:href="#linearGradient4628"
       id="linearGradient4634"
       x1="33.046837"
       y1="30.310268"
       x2="1.875"
       y2="13.810267"
       gradientUnits="userSpaceOnUse"
       gradientTransform="matrix(0.51460581,0,0,0.51457705,1.963081,12.25291)" />
    <filter
       inkscape:collect="always"
       id="filter4650">
      <feGaussianBlur
         inkscape:collect="always"
         stdDeviation="0.99736166"
         id="feGaussianBlur4652" />
    </filter>
    <linearGradient
       inkscape:collect="always"
       xlink:href="#linearGradient4628"
       id="linearGradient2833"
       gradientUnits="userSpaceOnUse"
       gradientTransform="matrix(0.51460581,0,0,0.51457705,23.963081,12.25291)"
       x1="33.046837"
       y1="30.310268"
       x2="1.875"
       y2="13.810267" />
    <linearGradient
       inkscape:collect="always"
       xlink:href="#linearGradient4620"
       id="linearGradient2835"
       gradientUnits="userSpaceOnUse"
       gradientTransform="matrix(0.51460581,0,0,0.51457705,23.963081,12.25291)"
       x1="39.30357"
       y1="45.5625"
       x2="3.8325534"
       y2="4.0245538" />
    <linearGradient
       inkscape:collect="always"
       xlink:href="#linearGradient4628"
       id="linearGradient2845"
       gradientUnits="userSpaceOnUse"
       gradientTransform="matrix(0.51460581,0,0,0.51457705,1.963081,13.395767)"
       x1="33.046837"
       y1="30.310268"
       x2="1.875"
       y2="13.810267" />
    <linearGradient
       inkscape:collect="always"
       xlink:href="#linearGradient4620"
       id="linearGradient2847"
       gradientUnits="userSpaceOnUse"
       gradientTransform="matrix(0.51460581,0,0,0.51457705,1.963081,13.395767)"
       x1="39.30357"
       y1="45.5625"
       x2="3.8325534"
       y2="4.0245538" />
    <linearGradient
       inkscape:collect="always"
       xlink:href="#linearGradient4628"
       id="linearGradient2849"
       gradientUnits="userSpaceOnUse"
       gradientTransform="matrix(0.51460581,0,0,0.51457705,23.963081,11.967196)"
       x1="33.046837"
       y1="30.310268"
       x2="1.875"
       y2="13.810267" />
    <linearGradient
       inkscape:collect="always"
       xlink:href="#linearGradient4620"
       id="linearGradient2851"
       gradientUnits="userSpaceOnUse"
       gradientTransform="matrix(0.51460581,0,0,0.51457705,23.963081,11.967196)"
       x1="39.30357"
       y1="45.5625"
       x2="3.8325534"
       y2="4.0245538" />
  </defs>
  <sodipodi:namedview
     id="base"
     pagecolor="#ffffff"
     bordercolor="#666666"
     borderopacity="1.0"
     inkscape:pageopacity="0.0"
     inkscape:pageshadow="2"
     inkscape:zoom="14"
     inkscape:cx="3.2237173"
     inkscape:cy="25.328963"
     inkscape:current-layer="g4611"
     showgrid="true"
     inkscape:grid-bbox="true"
     inkscape:document-units="px"
     inkscape:window-width="1680"
     inkscape:window-height="1000"
     inkscape:window-x="-8"
     inkscape:window-y="-8"
     inkscape:window-maximized="1">
    <inkscape:grid
       type="xygrid"
       id="grid2812"
       empspacing="12"
       visible="true"
       enabled="false"
       snapvisiblegridlinesonly="true"
       dotted="false" />
    <inkscape:grid
       type="xygrid"
       id="grid2818"
       empspacing="16"
       visible="true"
       enabled="false"
       snapvisiblegridlinesonly="true" />
    <inkscape:grid
       type="xygrid"
       id="grid2820"
       empspacing="4"
       visible="true"
       enabled="false"
       snapvisiblegridlinesonly="true" />
  </sodipodi:namedview>
  <metadata
     id="metadata2821">
    <rdf:RDF>
      <cc:Work
         rdf:about="">
        <dc:format>image/svg+xml</dc:format>
        <dc:type
           rdf:resource="http://purl.org/dc/dcmitype/StillImage" />
        <dc:title>Repeat</dc:title>
        <dc:creator>
          <cc:Agent>
            <dc:title>Florian Haag</dc:title>
          </cc:Agent>
        </dc:creator>
        <dc:rights>
          <cc:Agent>
            <dc:title>Florian Haag</dc:title>
          </cc:Agent>
        </dc:rights>
        <cc:license
           rdf:resource="http://creativecommons.org/licenses/MIT/ " />
        <dc:identifier>http://toolbaricons.sourceforge.net/icons/Modern3D/actions/repeat_green</dc:identifier>
        <dc:subject>
          <rdf:Bag />
        </dc:subject>
        <dc:date>2010-08-15</dc:date>
        <dc:publisher>
          <cc:Agent>
            <dc:title>Florian Haag</dc:title>
          </cc:Agent>
        </dc:publisher>
      </cc:Work>
    </rdf:RDF>
  </metadata>
  <g
     id="layer1"
     inkscape:label="Layer 1"
     inkscape:groupmode="layer">
    <g
       id="g4611">
      <g
         id="g2841"
         transform="matrix(1,0,0,1.4120874,0,-11.808378)">
        <path
           transform="matrix(-0.48487022,0,0,0.48487022,26.427351,12.964482)"
           style="font-size:medium;font-style:normal;font-variant:normal;font-weight:normal;font-stretch:normal;text-indent:0;text-align:start;text-decoration:none;line-height:normal;letter-spacing:normal;word-spacing:normal;text-transform:none;direction:ltr;block-progression:tb;writing-mode:lr-tb;text-anchor:start;color:#000000;fill:#131313;fill-opacity:1;stroke:none;stroke-width:0.99999994;marker:none;visibility:visible;display:inline;overflow:visible;filter:url(#filter4650);enable-background:accumulate;font-family:Bitstream Vera Sans;-inkscape-font-specification:Bitstream Vera Sans"
           d="M 28.890202,3.2953482 3.5178571,7.8720648 25.805721,20.839429 c -0.939299,-1.950136 -1.412969,-4.0371 -1.492491,-6.102289 4.274318,1.14734 7.576613,2.673554 9.916773,4.344564 3.87589,2.767612 5.121967,5.597407 4.908637,8.257989 -0.21333,2.660582 -2.050051,5.681913 -6.301628,8.291153 -4.251577,2.60924 -10.830111,4.45802 -19.501882,5.041021 -3.8326175,0.257666 -6.2092352,2.008828 0.132666,3.183803 6.341902,1.174975 3.906536,1.89512 0.165832,3.183802 9.518933,-0.422746 17.06252,-2.620295 22.52003,-5.96963 5.457511,-3.349335 8.93769,-8.020615 9.352944,-13.199516 C 45.921855,22.691425 43.103462,17.558555 37.944648,13.87486 34.713978,11.567973 30.562857,9.7007032 25.44089,8.4026986 26.214535,6.51971 27.356453,4.7610193 28.890202,3.2953482 z"
           id="path4636" />
        <path
           id="path2825"
           d="m 11.518879,13.973528 12.302295,2.219113 -10.806722,6.287489 c 0.455438,-0.945563 0.685106,-1.95747 0.723664,-2.958818 -2.072489,0.556311 -3.673674,1.296326 -4.808348,2.106549 -1.879303,1.341933 -2.483489,2.714016 -2.380052,4.004053 0.103438,1.290037 0.994009,2.754991 3.055472,4.020133 2.061463,1.265143 5.251199,2.161562 9.455882,2.444241 1.858322,0.124935 3.010674,0.974021 -0.06433,1.543732 -3.074999,0.56971 -1.894163,0.918887 -0.08041,1.543731 C 14.300883,34.978774 10.643222,33.913248 7.997038,32.289255 5.350854,30.665262 3.663418,28.400297 3.462074,25.889202 3.26073,23.378108 4.627285,20.889332 7.128641,19.103218 c 1.566455,-1.118541 3.57921,-2.023925 6.0627,-2.653288 -0.375118,-0.913005 -0.9288,-1.765742 -1.672469,-2.476402 z"
           style="font-size:medium;font-style:normal;font-variant:normal;font-weight:normal;font-stretch:normal;text-indent:0;text-align:start;text-decoration:none;line-height:normal;letter-spacing:normal;word-spacing:normal;text-transform:none;direction:ltr;block-progression:tb;writing-mode:lr-tb;text-anchor:start;color:#000000;fill:url(#linearGradient2845);fill-opacity:1;stroke:url(#linearGradient2847);stroke-width:0.4848702;stroke-linejoin:round;stroke-miterlimit:4;stroke-dasharray:none;marker:none;visibility:visible;display:inline;overflow:visible;enable-background:accumulate;font-family:Bitstream Vera Sans;-inkscape-font-specification:Bitstream Vera Sans" />
      </g>
      <g
         id="g2837"
         transform="matrix(1,0,0,1.4120874,0,-9.7911101)">
        <path
           id="path2829"
           d="M 28.890202,3.2953482 3.5178571,7.8720648 25.805721,20.839429 c -0.939299,-1.950136 -1.412969,-4.0371 -1.492491,-6.102289 4.274318,1.14734 7.576613,2.673554 9.916773,4.344564 3.87589,2.767612 5.121967,5.597407 4.908637,8.257989 -0.21333,2.660582 -2.050051,5.681913 -6.301628,8.291153 -4.251577,2.60924 -10.830111,4.45802 -19.501882,5.041021 -3.8326175,0.257666 -6.2092352,2.008828 0.132666,3.183803 6.341902,1.174975 3.906536,1.89512 0.165832,3.183802 9.518933,-0.422746 17.06252,-2.620295 22.52003,-5.96963 5.457511,-3.349335 8.93769,-8.020615 9.352944,-13.199516 C 45.921855,22.691425 43.103462,17.558555 37.944648,13.87486 34.713978,11.567973 30.562857,9.7007032 25.44089,8.4026986 26.214535,6.51971 27.356453,4.7610193 28.890202,3.2953482 z"
           style="font-size:medium;font-style:normal;font-variant:normal;font-weight:normal;font-stretch:normal;text-indent:0;text-align:start;text-decoration:none;line-height:normal;letter-spacing:normal;word-spacing:normal;text-transform:none;direction:ltr;block-progression:tb;writing-mode:lr-tb;text-anchor:start;color:#000000;fill:#131313;fill-opacity:1;stroke:none;stroke-width:0.99999994;marker:none;visibility:visible;display:inline;overflow:visible;filter:url(#filter4650);enable-background:accumulate;font-family:Bitstream Vera Sans;-inkscape-font-specification:Bitstream Vera Sans"
           transform="matrix(0.48487022,0,0,-0.48487022,22.637342,37.370337)" />
        <path
           style="font-size:medium;font-style:normal;font-variant:normal;font-weight:normal;font-stretch:normal;text-indent:0;text-align:start;text-decoration:none;line-height:normal;letter-spacing:normal;word-spacing:normal;text-transform:none;direction:ltr;block-progression:tb;writing-mode:lr-tb;text-anchor:start;color:#000000;fill:url(#linearGradient2849);fill-opacity:1;stroke:url(#linearGradient2851);stroke-width:0.4848702;stroke-linejoin:round;stroke-miterlimit:4;stroke-dasharray:none;marker:none;visibility:visible;display:inline;overflow:visible;enable-background:accumulate;font-family:Bitstream Vera Sans;-inkscape-font-specification:Bitstream Vera Sans"
           d="M 35.74486,35.183751 23.442565,32.964638 34.249287,26.677149 c -0.455438,0.945563 -0.685106,1.95747 -0.723664,2.958818 2.072489,-0.556311 3.673674,-1.296326 4.808348,-2.106549 1.879303,-1.341933 2.483489,-2.714016 2.380052,-4.004053 -0.103438,-1.290037 -0.994009,-2.754991 -3.055472,-4.020133 -2.061463,-1.265143 -5.251199,-2.161562 -9.455882,-2.444241 -1.858322,-0.124935 -3.010674,-0.974021 0.06433,-1.543732 3.074999,-0.56971 1.894163,-0.918887 0.08041,-1.543731 4.615447,0.204977 8.273108,1.270503 10.919292,2.894496 2.646184,1.623993 4.33362,3.888958 4.534964,6.400053 0.201344,2.511094 -1.165211,4.99987 -3.666567,6.785984 -1.566455,1.118541 -3.57921,2.023925 -6.0627,2.653288 0.375118,0.913005 0.9288,1.765742 1.672469,2.476402 z"
           id="path2831" />
      </g>
    </g>
  </g>
</svg>
